G04 EAGLE Gerber X2 export*
G75*
%MOMM*%
%FSLAX34Y34*%
%LPD*%
%AMOC8*
5,1,8,0,0,1.08239X$1,22.5*%
G01*
%ADD10R,0.950000X0.900000*%
%ADD11C,2.540000*%
%ADD12R,2.540000X2.540000*%
%ADD13R,1.879600X1.879600*%
%ADD14C,1.879600*%
%ADD15R,1.219200X2.235200*%
%ADD16R,3.600000X2.200000*%
%ADD17R,0.800000X1.200000*%
%ADD18C,0.604000*%
%ADD19C,0.406400*%
%ADD20C,0.254000*%
%ADD21C,0.203200*%
%ADD22C,0.304800*%

G36*
X303658Y-1976D02*
X303658Y-1976D01*
X303745Y-1973D01*
X303798Y-1956D01*
X303853Y-1949D01*
X303933Y-1913D01*
X304016Y-1886D01*
X304055Y-1858D01*
X304112Y-1832D01*
X304226Y-1736D01*
X304289Y-1691D01*
X305303Y-678D01*
X305324Y-649D01*
X305343Y-633D01*
X305371Y-591D01*
X305415Y-544D01*
X305441Y-494D01*
X305474Y-450D01*
X305486Y-419D01*
X305500Y-397D01*
X305517Y-346D01*
X305545Y-291D01*
X305553Y-243D01*
X305575Y-185D01*
X305578Y-153D01*
X305586Y-126D01*
X305589Y-28D01*
X305600Y40D01*
X305600Y611740D01*
X305588Y611827D01*
X305585Y611914D01*
X305568Y611967D01*
X305560Y612022D01*
X305525Y612101D01*
X305498Y612185D01*
X305470Y612224D01*
X305444Y612281D01*
X305348Y612394D01*
X305303Y612458D01*
X304295Y613465D01*
X304226Y613518D01*
X304162Y613578D01*
X304112Y613603D01*
X304068Y613636D01*
X303986Y613667D01*
X303908Y613707D01*
X303861Y613715D01*
X303802Y613738D01*
X303655Y613750D01*
X303577Y613763D01*
X10Y613763D01*
X-77Y613751D01*
X-164Y613748D01*
X-217Y613731D01*
X-272Y613723D01*
X-352Y613687D01*
X-435Y613660D01*
X-474Y613632D01*
X-531Y613607D01*
X-645Y613511D01*
X-708Y613465D01*
X-1718Y612456D01*
X-1770Y612386D01*
X-1830Y612322D01*
X-1856Y612273D01*
X-1889Y612229D01*
X-1920Y612147D01*
X-1960Y612069D01*
X-1968Y612021D01*
X-1990Y611963D01*
X-2002Y611815D01*
X-2015Y611738D01*
X-2015Y0D01*
X-2008Y-51D01*
X-2009Y-74D01*
X-2001Y-104D01*
X-1995Y-201D01*
X-1981Y-240D01*
X-1975Y-282D01*
X-1934Y-374D01*
X-1900Y-469D01*
X-1878Y-499D01*
X-1859Y-541D01*
X-1740Y-682D01*
X-1698Y-737D01*
X-671Y-1710D01*
X-611Y-1753D01*
X-557Y-1803D01*
X-496Y-1835D01*
X-440Y-1875D01*
X-370Y-1899D01*
X-304Y-1933D01*
X-246Y-1943D01*
X-171Y-1969D01*
X-49Y-1976D01*
X27Y-1988D01*
X303571Y-1988D01*
X303658Y-1976D01*
G37*
%LPC*%
G36*
X109012Y151201D02*
X109012Y151201D01*
X106201Y154012D01*
X106201Y157988D01*
X109012Y160799D01*
X110707Y160799D01*
X110794Y160811D01*
X110881Y160814D01*
X110934Y160831D01*
X110989Y160839D01*
X111069Y160874D01*
X111152Y160901D01*
X111191Y160929D01*
X111248Y160955D01*
X111362Y161051D01*
X111425Y161096D01*
X114632Y164303D01*
X160186Y164303D01*
X160244Y164311D01*
X160302Y164309D01*
X160384Y164331D01*
X160468Y164343D01*
X160521Y164366D01*
X160577Y164381D01*
X160650Y164424D01*
X160727Y164459D01*
X160772Y164497D01*
X160822Y164526D01*
X160880Y164588D01*
X160944Y164642D01*
X160976Y164691D01*
X161016Y164734D01*
X161055Y164809D01*
X161102Y164879D01*
X161119Y164935D01*
X161146Y164987D01*
X161157Y165055D01*
X161187Y165150D01*
X161190Y165250D01*
X161201Y165318D01*
X161201Y165988D01*
X164012Y168799D01*
X167988Y168799D01*
X170799Y165988D01*
X170799Y165318D01*
X170807Y165260D01*
X170805Y165202D01*
X170827Y165120D01*
X170839Y165036D01*
X170862Y164983D01*
X170877Y164927D01*
X170920Y164854D01*
X170955Y164777D01*
X170993Y164732D01*
X171022Y164682D01*
X171084Y164624D01*
X171138Y164560D01*
X171187Y164528D01*
X171230Y164488D01*
X171305Y164449D01*
X171375Y164402D01*
X171431Y164385D01*
X171483Y164358D01*
X171551Y164347D01*
X171646Y164317D01*
X171746Y164314D01*
X171814Y164303D01*
X178221Y164303D01*
X178308Y164315D01*
X178395Y164318D01*
X178448Y164335D01*
X178503Y164343D01*
X178583Y164378D01*
X178666Y164405D01*
X178705Y164433D01*
X178762Y164459D01*
X178876Y164555D01*
X178939Y164600D01*
X191189Y176850D01*
X191224Y176896D01*
X191267Y176937D01*
X191309Y177010D01*
X191360Y177077D01*
X191381Y177132D01*
X191410Y177182D01*
X191431Y177264D01*
X191461Y177343D01*
X191466Y177401D01*
X191480Y177458D01*
X191478Y177542D01*
X191485Y177626D01*
X191473Y177683D01*
X191471Y177742D01*
X191445Y177822D01*
X191429Y177905D01*
X191402Y177957D01*
X191384Y178012D01*
X191344Y178069D01*
X191298Y178157D01*
X191229Y178229D01*
X191189Y178286D01*
X190221Y179253D01*
X190221Y197969D01*
X190209Y198056D01*
X190206Y198143D01*
X190189Y198196D01*
X190181Y198251D01*
X190146Y198330D01*
X190119Y198414D01*
X190091Y198453D01*
X190065Y198510D01*
X189969Y198623D01*
X189959Y198638D01*
X189951Y198652D01*
X189946Y198656D01*
X189924Y198687D01*
X177687Y210924D01*
X177617Y210976D01*
X177553Y211036D01*
X177504Y211062D01*
X177460Y211095D01*
X177378Y211126D01*
X177300Y211166D01*
X177253Y211174D01*
X177194Y211196D01*
X177046Y211208D01*
X176969Y211221D01*
X170263Y211221D01*
X169221Y212263D01*
X169221Y225737D01*
X170270Y226786D01*
X170290Y226785D01*
X170372Y226807D01*
X170456Y226819D01*
X170509Y226842D01*
X170565Y226857D01*
X170638Y226900D01*
X170715Y226935D01*
X170760Y226973D01*
X170810Y227002D01*
X170868Y227064D01*
X170932Y227118D01*
X170964Y227167D01*
X171004Y227210D01*
X171043Y227285D01*
X171090Y227355D01*
X171107Y227411D01*
X171134Y227463D01*
X171145Y227531D01*
X171175Y227626D01*
X171178Y227726D01*
X171189Y227794D01*
X171189Y237206D01*
X171181Y237264D01*
X171183Y237322D01*
X171161Y237404D01*
X171149Y237488D01*
X171126Y237541D01*
X171111Y237597D01*
X171068Y237670D01*
X171033Y237747D01*
X170995Y237792D01*
X170966Y237842D01*
X170904Y237900D01*
X170850Y237964D01*
X170801Y237996D01*
X170758Y238036D01*
X170683Y238075D01*
X170613Y238122D01*
X170557Y238139D01*
X170505Y238166D01*
X170437Y238177D01*
X170342Y238207D01*
X170275Y238209D01*
X169221Y239263D01*
X169221Y241936D01*
X169213Y241994D01*
X169215Y242052D01*
X169193Y242134D01*
X169181Y242218D01*
X169158Y242271D01*
X169143Y242327D01*
X169100Y242400D01*
X169065Y242477D01*
X169027Y242522D01*
X168998Y242572D01*
X168936Y242630D01*
X168882Y242694D01*
X168833Y242726D01*
X168790Y242766D01*
X168715Y242805D01*
X168645Y242852D01*
X168589Y242869D01*
X168537Y242896D01*
X168469Y242907D01*
X168374Y242937D01*
X168274Y242940D01*
X168206Y242951D01*
X164158Y242951D01*
X164072Y242939D01*
X163984Y242936D01*
X163932Y242919D01*
X163877Y242911D01*
X163797Y242876D01*
X163714Y242849D01*
X163674Y242821D01*
X163617Y242795D01*
X163504Y242699D01*
X163440Y242654D01*
X161988Y241201D01*
X158012Y241201D01*
X155201Y244012D01*
X155201Y247988D01*
X158012Y250799D01*
X161988Y250799D01*
X163440Y249346D01*
X163510Y249294D01*
X163574Y249234D01*
X163623Y249208D01*
X163668Y249175D01*
X163749Y249144D01*
X163827Y249104D01*
X163875Y249096D01*
X163933Y249074D01*
X164081Y249062D01*
X164158Y249049D01*
X168206Y249049D01*
X168264Y249057D01*
X168322Y249055D01*
X168404Y249077D01*
X168488Y249089D01*
X168541Y249112D01*
X168597Y249127D01*
X168670Y249170D01*
X168747Y249205D01*
X168792Y249243D01*
X168842Y249272D01*
X168900Y249334D01*
X168964Y249388D01*
X168996Y249437D01*
X169036Y249480D01*
X169075Y249555D01*
X169122Y249625D01*
X169139Y249681D01*
X169166Y249733D01*
X169177Y249801D01*
X169207Y249896D01*
X169210Y249996D01*
X169221Y250064D01*
X169221Y252737D01*
X170270Y253786D01*
X170290Y253785D01*
X170372Y253807D01*
X170456Y253819D01*
X170509Y253842D01*
X170565Y253857D01*
X170638Y253900D01*
X170715Y253935D01*
X170760Y253973D01*
X170810Y254002D01*
X170868Y254064D01*
X170932Y254118D01*
X170964Y254167D01*
X171004Y254210D01*
X171043Y254285D01*
X171090Y254355D01*
X171107Y254411D01*
X171134Y254463D01*
X171145Y254531D01*
X171175Y254626D01*
X171178Y254726D01*
X171189Y254794D01*
X171189Y355186D01*
X171181Y355244D01*
X171183Y355302D01*
X171161Y355384D01*
X171149Y355468D01*
X171126Y355521D01*
X171111Y355577D01*
X171068Y355650D01*
X171033Y355727D01*
X170995Y355772D01*
X170966Y355822D01*
X170904Y355880D01*
X170850Y355944D01*
X170801Y355976D01*
X170758Y356016D01*
X170683Y356055D01*
X170613Y356102D01*
X170557Y356119D01*
X170505Y356146D01*
X170437Y356157D01*
X170342Y356187D01*
X170242Y356190D01*
X170174Y356201D01*
X169012Y356201D01*
X166201Y359012D01*
X166201Y362988D01*
X169012Y365799D01*
X170174Y365799D01*
X170232Y365807D01*
X170290Y365805D01*
X170372Y365827D01*
X170456Y365839D01*
X170509Y365862D01*
X170565Y365877D01*
X170638Y365920D01*
X170715Y365955D01*
X170760Y365993D01*
X170810Y366022D01*
X170868Y366084D01*
X170932Y366138D01*
X170964Y366187D01*
X171004Y366230D01*
X171043Y366305D01*
X171090Y366375D01*
X171107Y366431D01*
X171134Y366483D01*
X171145Y366551D01*
X171175Y366646D01*
X171178Y366746D01*
X171189Y366814D01*
X171189Y521578D01*
X211492Y561881D01*
X211544Y561951D01*
X211604Y562015D01*
X211630Y562064D01*
X211663Y562108D01*
X211694Y562190D01*
X211734Y562268D01*
X211742Y562315D01*
X211764Y562374D01*
X211776Y562522D01*
X211789Y562599D01*
X211789Y563902D01*
X211789Y563904D01*
X211789Y563906D01*
X211769Y564045D01*
X211749Y564184D01*
X211749Y564185D01*
X211749Y564187D01*
X211692Y564313D01*
X211633Y564443D01*
X211632Y564445D01*
X211631Y564446D01*
X211540Y564553D01*
X211450Y564660D01*
X211448Y564661D01*
X211447Y564662D01*
X211434Y564671D01*
X211213Y564818D01*
X211184Y564827D01*
X211163Y564840D01*
X209269Y565625D01*
X206125Y568769D01*
X204423Y572877D01*
X204423Y577323D01*
X206125Y581431D01*
X209269Y584575D01*
X213377Y586277D01*
X217823Y586277D01*
X221931Y584575D01*
X225075Y581431D01*
X226777Y577323D01*
X226777Y572877D01*
X225075Y568769D01*
X221931Y565625D01*
X220037Y564840D01*
X220036Y564840D01*
X220035Y564839D01*
X219916Y564769D01*
X219793Y564696D01*
X219792Y564695D01*
X219790Y564694D01*
X219693Y564590D01*
X219597Y564489D01*
X219597Y564488D01*
X219596Y564487D01*
X219531Y564361D01*
X219467Y564237D01*
X219467Y564235D01*
X219466Y564234D01*
X219464Y564219D01*
X219412Y563958D01*
X219415Y563927D01*
X219411Y563902D01*
X219411Y559022D01*
X179108Y518719D01*
X179056Y518649D01*
X178996Y518585D01*
X178970Y518536D01*
X178937Y518492D01*
X178906Y518410D01*
X178866Y518332D01*
X178858Y518285D01*
X178836Y518226D01*
X178824Y518078D01*
X178811Y518001D01*
X178811Y366814D01*
X178819Y366756D01*
X178817Y366698D01*
X178839Y366616D01*
X178851Y366532D01*
X178874Y366479D01*
X178889Y366423D01*
X178932Y366350D01*
X178967Y366273D01*
X179005Y366228D01*
X179034Y366178D01*
X179096Y366120D01*
X179150Y366056D01*
X179199Y366024D01*
X179242Y365984D01*
X179317Y365945D01*
X179387Y365898D01*
X179443Y365881D01*
X179495Y365854D01*
X179563Y365843D01*
X179658Y365813D01*
X179758Y365810D01*
X179826Y365799D01*
X180988Y365799D01*
X183799Y362988D01*
X183799Y359012D01*
X180988Y356201D01*
X179826Y356201D01*
X179768Y356193D01*
X179710Y356195D01*
X179628Y356173D01*
X179544Y356161D01*
X179491Y356138D01*
X179435Y356123D01*
X179362Y356080D01*
X179285Y356045D01*
X179240Y356007D01*
X179190Y355978D01*
X179132Y355916D01*
X179068Y355862D01*
X179036Y355813D01*
X178996Y355770D01*
X178957Y355695D01*
X178910Y355625D01*
X178893Y355569D01*
X178866Y355517D01*
X178855Y355449D01*
X178825Y355354D01*
X178822Y355254D01*
X178811Y355186D01*
X178811Y292814D01*
X178819Y292756D01*
X178817Y292698D01*
X178839Y292616D01*
X178851Y292532D01*
X178874Y292479D01*
X178889Y292423D01*
X178932Y292350D01*
X178967Y292273D01*
X179005Y292228D01*
X179034Y292178D01*
X179096Y292120D01*
X179150Y292056D01*
X179199Y292024D01*
X179242Y291984D01*
X179317Y291945D01*
X179387Y291898D01*
X179443Y291881D01*
X179495Y291854D01*
X179563Y291843D01*
X179658Y291813D01*
X179758Y291810D01*
X179826Y291799D01*
X180988Y291799D01*
X183799Y288988D01*
X183799Y285012D01*
X180988Y282201D01*
X179826Y282201D01*
X179768Y282193D01*
X179710Y282195D01*
X179628Y282173D01*
X179544Y282161D01*
X179491Y282138D01*
X179435Y282123D01*
X179362Y282080D01*
X179285Y282045D01*
X179240Y282007D01*
X179190Y281978D01*
X179132Y281916D01*
X179068Y281862D01*
X179036Y281813D01*
X178996Y281770D01*
X178957Y281695D01*
X178910Y281625D01*
X178893Y281569D01*
X178866Y281517D01*
X178855Y281449D01*
X178825Y281354D01*
X178822Y281254D01*
X178811Y281186D01*
X178811Y254794D01*
X178819Y254736D01*
X178817Y254678D01*
X178839Y254596D01*
X178851Y254512D01*
X178874Y254459D01*
X178889Y254403D01*
X178932Y254330D01*
X178967Y254253D01*
X179005Y254208D01*
X179034Y254158D01*
X179096Y254100D01*
X179150Y254036D01*
X179199Y254004D01*
X179242Y253964D01*
X179317Y253925D01*
X179387Y253878D01*
X179443Y253861D01*
X179495Y253834D01*
X179563Y253823D01*
X179658Y253793D01*
X179725Y253791D01*
X180779Y252737D01*
X180779Y239263D01*
X179730Y238214D01*
X179710Y238215D01*
X179628Y238193D01*
X179544Y238181D01*
X179491Y238158D01*
X179435Y238143D01*
X179362Y238100D01*
X179285Y238065D01*
X179240Y238027D01*
X179190Y237998D01*
X179132Y237936D01*
X179068Y237882D01*
X179036Y237833D01*
X178996Y237790D01*
X178957Y237715D01*
X178910Y237645D01*
X178893Y237589D01*
X178866Y237537D01*
X178855Y237469D01*
X178825Y237374D01*
X178822Y237274D01*
X178811Y237206D01*
X178811Y227794D01*
X178819Y227736D01*
X178817Y227678D01*
X178839Y227596D01*
X178851Y227512D01*
X178874Y227459D01*
X178889Y227403D01*
X178932Y227330D01*
X178967Y227253D01*
X179005Y227208D01*
X179034Y227158D01*
X179096Y227100D01*
X179150Y227036D01*
X179199Y227004D01*
X179242Y226964D01*
X179317Y226925D01*
X179387Y226878D01*
X179443Y226861D01*
X179495Y226834D01*
X179563Y226823D01*
X179658Y226793D01*
X179725Y226791D01*
X180779Y225737D01*
X180779Y219031D01*
X180791Y218944D01*
X180794Y218857D01*
X180811Y218804D01*
X180819Y218749D01*
X180854Y218670D01*
X180881Y218586D01*
X180909Y218547D01*
X180935Y218490D01*
X181031Y218377D01*
X181076Y218313D01*
X195323Y204066D01*
X195393Y204014D01*
X195457Y203954D01*
X195506Y203928D01*
X195550Y203895D01*
X195632Y203864D01*
X195710Y203824D01*
X195757Y203816D01*
X195816Y203794D01*
X195964Y203782D01*
X196041Y203769D01*
X198969Y203769D01*
X199056Y203781D01*
X199143Y203784D01*
X199196Y203801D01*
X202788Y203801D01*
X202806Y203794D01*
X202954Y203782D01*
X203031Y203769D01*
X228737Y203769D01*
X229779Y202727D01*
X229779Y179253D01*
X228737Y178211D01*
X202313Y178211D01*
X202226Y178199D01*
X202139Y178196D01*
X202086Y178179D01*
X202031Y178171D01*
X201951Y178136D01*
X201868Y178109D01*
X201829Y178081D01*
X201772Y178055D01*
X201659Y177959D01*
X201595Y177914D01*
X200605Y176924D01*
X199105Y175424D01*
X183610Y159929D01*
X181378Y157697D01*
X117789Y157697D01*
X117702Y157685D01*
X117615Y157682D01*
X117562Y157665D01*
X117507Y157657D01*
X117427Y157622D01*
X117344Y157595D01*
X117305Y157567D01*
X117248Y157541D01*
X117134Y157445D01*
X117071Y157400D01*
X116096Y156425D01*
X116044Y156356D01*
X115984Y156292D01*
X115958Y156242D01*
X115925Y156198D01*
X115894Y156116D01*
X115854Y156038D01*
X115846Y155991D01*
X115824Y155932D01*
X115812Y155785D01*
X115799Y155707D01*
X115799Y154012D01*
X112988Y151201D01*
X109012Y151201D01*
G37*
%LPD*%
%LPC*%
G36*
X287367Y28123D02*
X287367Y28123D01*
X283259Y29825D01*
X280115Y32969D01*
X279330Y34863D01*
X279330Y34864D01*
X279329Y34865D01*
X279259Y34984D01*
X279186Y35107D01*
X279185Y35108D01*
X279184Y35110D01*
X279080Y35207D01*
X278979Y35303D01*
X278978Y35303D01*
X278977Y35304D01*
X278851Y35369D01*
X278727Y35433D01*
X278725Y35433D01*
X278724Y35434D01*
X278709Y35436D01*
X278448Y35488D01*
X278417Y35485D01*
X278392Y35489D01*
X217122Y35489D01*
X183189Y69422D01*
X183189Y82206D01*
X183181Y82264D01*
X183183Y82322D01*
X183161Y82404D01*
X183149Y82488D01*
X183126Y82541D01*
X183111Y82597D01*
X183068Y82670D01*
X183033Y82747D01*
X182995Y82792D01*
X182966Y82842D01*
X182904Y82900D01*
X182850Y82964D01*
X182801Y82996D01*
X182758Y83036D01*
X182683Y83075D01*
X182613Y83122D01*
X182557Y83139D01*
X182505Y83166D01*
X182437Y83177D01*
X182342Y83207D01*
X182275Y83209D01*
X181221Y84263D01*
X181221Y97737D01*
X182270Y98786D01*
X182290Y98785D01*
X182372Y98807D01*
X182456Y98819D01*
X182509Y98842D01*
X182565Y98857D01*
X182638Y98900D01*
X182715Y98935D01*
X182760Y98973D01*
X182810Y99002D01*
X182868Y99064D01*
X182932Y99118D01*
X182964Y99167D01*
X183004Y99210D01*
X183043Y99285D01*
X183090Y99355D01*
X183107Y99411D01*
X183134Y99463D01*
X183145Y99531D01*
X183175Y99626D01*
X183178Y99726D01*
X183189Y99794D01*
X183189Y115042D01*
X183181Y115100D01*
X183183Y115158D01*
X183161Y115240D01*
X183149Y115324D01*
X183126Y115377D01*
X183111Y115433D01*
X183068Y115506D01*
X183033Y115583D01*
X182995Y115628D01*
X182966Y115678D01*
X182904Y115736D01*
X182850Y115800D01*
X182801Y115832D01*
X182758Y115872D01*
X182683Y115911D01*
X182613Y115958D01*
X182557Y115975D01*
X182505Y116002D01*
X182437Y116013D01*
X182342Y116043D01*
X182242Y116046D01*
X182174Y116057D01*
X180053Y116057D01*
X179011Y117099D01*
X179011Y124186D01*
X179003Y124244D01*
X179005Y124302D01*
X178983Y124384D01*
X178971Y124468D01*
X178948Y124521D01*
X178933Y124577D01*
X178890Y124650D01*
X178855Y124727D01*
X178817Y124772D01*
X178788Y124822D01*
X178726Y124880D01*
X178672Y124944D01*
X178623Y124976D01*
X178580Y125016D01*
X178505Y125055D01*
X178435Y125102D01*
X178379Y125119D01*
X178327Y125146D01*
X178259Y125157D01*
X178164Y125187D01*
X178064Y125190D01*
X177996Y125201D01*
X155987Y125201D01*
X155900Y125189D01*
X155813Y125186D01*
X155760Y125169D01*
X155705Y125161D01*
X155626Y125126D01*
X155542Y125099D01*
X155503Y125071D01*
X155446Y125045D01*
X155333Y124949D01*
X155269Y124904D01*
X154127Y123762D01*
X154109Y123738D01*
X154087Y123719D01*
X154024Y123625D01*
X153956Y123535D01*
X153946Y123507D01*
X153929Y123483D01*
X153895Y123375D01*
X153855Y123269D01*
X153852Y123240D01*
X153844Y123212D01*
X153841Y123098D01*
X153831Y122986D01*
X153837Y122957D01*
X153836Y122928D01*
X153865Y122818D01*
X153887Y122707D01*
X153901Y122681D01*
X153908Y122653D01*
X153966Y122555D01*
X154018Y122455D01*
X154038Y122433D01*
X154053Y122408D01*
X154136Y122331D01*
X154214Y122249D01*
X154239Y122234D01*
X154261Y122214D01*
X154362Y122162D01*
X154459Y122105D01*
X154488Y122098D01*
X154514Y122084D01*
X154591Y122071D01*
X154735Y122035D01*
X154797Y122037D01*
X154845Y122029D01*
X155487Y122029D01*
X156529Y120987D01*
X156529Y110513D01*
X155487Y109471D01*
X144513Y109471D01*
X143471Y110513D01*
X143471Y120987D01*
X144513Y122029D01*
X145174Y122029D01*
X145232Y122037D01*
X145290Y122035D01*
X145372Y122057D01*
X145456Y122069D01*
X145509Y122092D01*
X145565Y122107D01*
X145638Y122150D01*
X145715Y122185D01*
X145760Y122223D01*
X145810Y122252D01*
X145868Y122314D01*
X145932Y122368D01*
X145964Y122417D01*
X146004Y122460D01*
X146043Y122535D01*
X146090Y122605D01*
X146107Y122661D01*
X146134Y122713D01*
X146145Y122781D01*
X146175Y122876D01*
X146178Y122976D01*
X146189Y123044D01*
X146189Y136956D01*
X146181Y137014D01*
X146183Y137072D01*
X146161Y137154D01*
X146149Y137238D01*
X146126Y137291D01*
X146111Y137347D01*
X146068Y137420D01*
X146033Y137497D01*
X145995Y137542D01*
X145966Y137592D01*
X145904Y137650D01*
X145850Y137714D01*
X145801Y137746D01*
X145758Y137786D01*
X145683Y137825D01*
X145613Y137872D01*
X145557Y137889D01*
X145505Y137916D01*
X145437Y137927D01*
X145342Y137957D01*
X145242Y137960D01*
X145174Y137971D01*
X144513Y137971D01*
X143471Y139013D01*
X143471Y149487D01*
X144513Y150529D01*
X155487Y150529D01*
X156529Y149487D01*
X156529Y139013D01*
X155487Y137971D01*
X154826Y137971D01*
X154768Y137963D01*
X154710Y137965D01*
X154628Y137943D01*
X154544Y137931D01*
X154491Y137908D01*
X154435Y137893D01*
X154362Y137850D01*
X154285Y137815D01*
X154240Y137777D01*
X154190Y137748D01*
X154132Y137686D01*
X154068Y137632D01*
X154036Y137583D01*
X153996Y137540D01*
X153957Y137465D01*
X153910Y137395D01*
X153893Y137339D01*
X153866Y137287D01*
X153855Y137219D01*
X153825Y137124D01*
X153822Y137024D01*
X153811Y136956D01*
X153811Y134999D01*
X153823Y134912D01*
X153826Y134825D01*
X153843Y134772D01*
X153851Y134717D01*
X153886Y134638D01*
X153913Y134554D01*
X153941Y134515D01*
X153967Y134458D01*
X154063Y134345D01*
X154108Y134281D01*
X155269Y133120D01*
X155339Y133068D01*
X155403Y133008D01*
X155452Y132982D01*
X155496Y132949D01*
X155578Y132918D01*
X155656Y132878D01*
X155703Y132870D01*
X155762Y132848D01*
X155910Y132836D01*
X155987Y132823D01*
X177996Y132823D01*
X178054Y132831D01*
X178112Y132829D01*
X178194Y132851D01*
X178278Y132863D01*
X178331Y132886D01*
X178387Y132901D01*
X178460Y132944D01*
X178537Y132979D01*
X178582Y133017D01*
X178632Y133046D01*
X178690Y133108D01*
X178754Y133162D01*
X178786Y133211D01*
X178826Y133254D01*
X178865Y133329D01*
X178912Y133399D01*
X178929Y133455D01*
X178956Y133507D01*
X178967Y133575D01*
X178997Y133670D01*
X179000Y133770D01*
X179011Y133838D01*
X179011Y140925D01*
X180053Y141967D01*
X193719Y141967D01*
X194761Y140925D01*
X194761Y117099D01*
X193719Y116057D01*
X191826Y116057D01*
X191768Y116049D01*
X191710Y116051D01*
X191628Y116029D01*
X191544Y116017D01*
X191491Y115994D01*
X191435Y115979D01*
X191362Y115936D01*
X191285Y115901D01*
X191240Y115863D01*
X191190Y115834D01*
X191132Y115772D01*
X191068Y115718D01*
X191036Y115669D01*
X190996Y115626D01*
X190957Y115551D01*
X190910Y115481D01*
X190893Y115425D01*
X190866Y115373D01*
X190855Y115305D01*
X190825Y115210D01*
X190822Y115110D01*
X190811Y115042D01*
X190811Y99794D01*
X190819Y99736D01*
X190817Y99678D01*
X190839Y99596D01*
X190851Y99512D01*
X190874Y99459D01*
X190889Y99403D01*
X190932Y99330D01*
X190967Y99253D01*
X191005Y99208D01*
X191034Y99158D01*
X191096Y99100D01*
X191150Y99036D01*
X191199Y99004D01*
X191242Y98964D01*
X191317Y98925D01*
X191387Y98878D01*
X191443Y98861D01*
X191495Y98834D01*
X191563Y98823D01*
X191658Y98793D01*
X191725Y98791D01*
X192779Y97737D01*
X192779Y84263D01*
X191730Y83214D01*
X191710Y83215D01*
X191628Y83193D01*
X191544Y83181D01*
X191491Y83158D01*
X191435Y83143D01*
X191362Y83100D01*
X191285Y83065D01*
X191240Y83027D01*
X191190Y82998D01*
X191132Y82936D01*
X191068Y82882D01*
X191036Y82833D01*
X190996Y82790D01*
X190957Y82715D01*
X190910Y82645D01*
X190893Y82589D01*
X190866Y82537D01*
X190855Y82469D01*
X190825Y82374D01*
X190822Y82274D01*
X190811Y82206D01*
X190811Y72999D01*
X190823Y72912D01*
X190826Y72825D01*
X190843Y72772D01*
X190851Y72717D01*
X190886Y72638D01*
X190913Y72554D01*
X190941Y72515D01*
X190967Y72458D01*
X191063Y72345D01*
X191108Y72281D01*
X219981Y43408D01*
X220051Y43356D01*
X220115Y43296D01*
X220164Y43270D01*
X220208Y43237D01*
X220290Y43206D01*
X220368Y43166D01*
X220415Y43158D01*
X220474Y43136D01*
X220622Y43124D01*
X220699Y43111D01*
X278392Y43111D01*
X278394Y43111D01*
X278396Y43111D01*
X278535Y43131D01*
X278674Y43151D01*
X278675Y43151D01*
X278677Y43151D01*
X278803Y43208D01*
X278933Y43267D01*
X278935Y43268D01*
X278936Y43269D01*
X279041Y43358D01*
X279150Y43450D01*
X279151Y43452D01*
X279152Y43453D01*
X279161Y43466D01*
X279308Y43687D01*
X279317Y43716D01*
X279330Y43737D01*
X280115Y45631D01*
X283259Y48775D01*
X287367Y50477D01*
X291813Y50477D01*
X295921Y48775D01*
X299065Y45631D01*
X300767Y41523D01*
X300767Y37077D01*
X299065Y32969D01*
X295921Y29825D01*
X291813Y28123D01*
X287367Y28123D01*
G37*
%LPD*%
%LPC*%
G36*
X11777Y28123D02*
X11777Y28123D01*
X7669Y29825D01*
X4525Y32969D01*
X2823Y37077D01*
X2823Y41523D01*
X4525Y45631D01*
X7669Y48775D01*
X11777Y50477D01*
X16223Y50477D01*
X20331Y48775D01*
X23475Y45631D01*
X24260Y43737D01*
X24260Y43736D01*
X24261Y43735D01*
X24331Y43616D01*
X24404Y43493D01*
X24405Y43492D01*
X24406Y43490D01*
X24510Y43393D01*
X24611Y43297D01*
X24612Y43297D01*
X24613Y43296D01*
X24739Y43231D01*
X24863Y43167D01*
X24865Y43167D01*
X24866Y43166D01*
X24881Y43164D01*
X25142Y43112D01*
X25173Y43115D01*
X25198Y43111D01*
X58006Y43111D01*
X58064Y43119D01*
X58122Y43117D01*
X58204Y43139D01*
X58288Y43151D01*
X58341Y43174D01*
X58397Y43189D01*
X58470Y43232D01*
X58547Y43267D01*
X58592Y43305D01*
X58642Y43334D01*
X58700Y43396D01*
X58764Y43450D01*
X58796Y43499D01*
X58836Y43542D01*
X58875Y43617D01*
X58922Y43687D01*
X58939Y43743D01*
X58966Y43795D01*
X58977Y43863D01*
X59007Y43958D01*
X59010Y44058D01*
X59021Y44126D01*
X59021Y62437D01*
X60063Y63479D01*
X66174Y63479D01*
X66232Y63487D01*
X66290Y63485D01*
X66372Y63507D01*
X66456Y63519D01*
X66509Y63542D01*
X66565Y63557D01*
X66638Y63600D01*
X66715Y63635D01*
X66760Y63673D01*
X66810Y63702D01*
X66868Y63764D01*
X66932Y63818D01*
X66964Y63867D01*
X67004Y63910D01*
X67043Y63985D01*
X67090Y64055D01*
X67107Y64111D01*
X67134Y64163D01*
X67145Y64231D01*
X67175Y64326D01*
X67178Y64426D01*
X67189Y64494D01*
X67189Y81206D01*
X67181Y81264D01*
X67183Y81322D01*
X67161Y81404D01*
X67149Y81488D01*
X67126Y81541D01*
X67111Y81597D01*
X67068Y81670D01*
X67033Y81747D01*
X66995Y81792D01*
X66966Y81842D01*
X66904Y81900D01*
X66850Y81964D01*
X66801Y81996D01*
X66758Y82036D01*
X66683Y82075D01*
X66613Y82122D01*
X66557Y82139D01*
X66505Y82166D01*
X66437Y82177D01*
X66342Y82207D01*
X66275Y82209D01*
X65221Y83263D01*
X65221Y89969D01*
X65209Y90056D01*
X65206Y90143D01*
X65189Y90196D01*
X65181Y90251D01*
X65146Y90330D01*
X65119Y90414D01*
X65091Y90453D01*
X65065Y90510D01*
X64969Y90623D01*
X64924Y90687D01*
X53075Y102536D01*
X53075Y115042D01*
X53067Y115100D01*
X53069Y115158D01*
X53047Y115240D01*
X53035Y115324D01*
X53012Y115377D01*
X52997Y115433D01*
X52954Y115506D01*
X52919Y115583D01*
X52881Y115628D01*
X52852Y115678D01*
X52790Y115736D01*
X52736Y115800D01*
X52687Y115832D01*
X52644Y115872D01*
X52569Y115911D01*
X52499Y115958D01*
X52443Y115975D01*
X52391Y116002D01*
X52323Y116013D01*
X52228Y116043D01*
X52128Y116046D01*
X52060Y116057D01*
X50053Y116057D01*
X49011Y117099D01*
X49011Y140925D01*
X50053Y141967D01*
X63719Y141967D01*
X64761Y140925D01*
X64761Y117099D01*
X63719Y116057D01*
X61712Y116057D01*
X61654Y116049D01*
X61596Y116051D01*
X61514Y116029D01*
X61430Y116017D01*
X61377Y115994D01*
X61321Y115979D01*
X61248Y115936D01*
X61171Y115901D01*
X61126Y115863D01*
X61076Y115834D01*
X61018Y115772D01*
X60954Y115718D01*
X60922Y115669D01*
X60882Y115626D01*
X60843Y115551D01*
X60796Y115481D01*
X60779Y115425D01*
X60752Y115373D01*
X60741Y115305D01*
X60711Y115210D01*
X60708Y115110D01*
X60697Y115042D01*
X60697Y106113D01*
X60709Y106026D01*
X60712Y105939D01*
X60729Y105886D01*
X60737Y105831D01*
X60772Y105752D01*
X60799Y105668D01*
X60827Y105629D01*
X60853Y105572D01*
X60949Y105459D01*
X60994Y105395D01*
X68313Y98076D01*
X68383Y98024D01*
X68447Y97964D01*
X68496Y97938D01*
X68540Y97905D01*
X68622Y97874D01*
X68700Y97834D01*
X68747Y97826D01*
X68806Y97804D01*
X68954Y97792D01*
X69031Y97779D01*
X75737Y97779D01*
X76779Y96737D01*
X76779Y83263D01*
X75730Y82214D01*
X75710Y82215D01*
X75628Y82193D01*
X75544Y82181D01*
X75491Y82158D01*
X75435Y82143D01*
X75362Y82100D01*
X75285Y82065D01*
X75240Y82027D01*
X75190Y81998D01*
X75132Y81936D01*
X75068Y81882D01*
X75036Y81833D01*
X74996Y81790D01*
X74957Y81715D01*
X74910Y81645D01*
X74893Y81589D01*
X74866Y81537D01*
X74855Y81469D01*
X74825Y81374D01*
X74822Y81274D01*
X74811Y81206D01*
X74811Y64494D01*
X74819Y64436D01*
X74817Y64378D01*
X74839Y64296D01*
X74851Y64212D01*
X74874Y64159D01*
X74889Y64103D01*
X74932Y64030D01*
X74967Y63953D01*
X75005Y63908D01*
X75034Y63858D01*
X75096Y63800D01*
X75150Y63736D01*
X75199Y63704D01*
X75242Y63664D01*
X75317Y63625D01*
X75387Y63578D01*
X75443Y63561D01*
X75495Y63534D01*
X75563Y63523D01*
X75658Y63493D01*
X75758Y63490D01*
X75826Y63479D01*
X86937Y63479D01*
X87979Y62437D01*
X87979Y35563D01*
X86937Y34521D01*
X60063Y34521D01*
X59393Y35192D01*
X59323Y35244D01*
X59259Y35304D01*
X59210Y35330D01*
X59165Y35363D01*
X59084Y35394D01*
X59006Y35434D01*
X58958Y35442D01*
X58900Y35464D01*
X58752Y35476D01*
X58675Y35489D01*
X25198Y35489D01*
X25196Y35489D01*
X25194Y35489D01*
X25055Y35469D01*
X24916Y35449D01*
X24915Y35449D01*
X24913Y35449D01*
X24787Y35392D01*
X24657Y35333D01*
X24655Y35332D01*
X24654Y35331D01*
X24547Y35240D01*
X24440Y35150D01*
X24439Y35148D01*
X24438Y35147D01*
X24429Y35134D01*
X24282Y34913D01*
X24273Y34884D01*
X24260Y34863D01*
X23475Y32969D01*
X20331Y29825D01*
X16223Y28123D01*
X11777Y28123D01*
G37*
%LPD*%
%LPC*%
G36*
X203826Y206011D02*
X203826Y206011D01*
X201015Y208822D01*
X201015Y211186D01*
X201007Y211244D01*
X201009Y211302D01*
X200987Y211384D01*
X200975Y211468D01*
X200952Y211521D01*
X200937Y211577D01*
X200894Y211650D01*
X200859Y211727D01*
X200821Y211772D01*
X200792Y211822D01*
X200730Y211880D01*
X200676Y211944D01*
X200627Y211976D01*
X200584Y212016D01*
X200509Y212055D01*
X200439Y212102D01*
X200383Y212119D01*
X200331Y212146D01*
X200263Y212157D01*
X200168Y212187D01*
X200068Y212190D01*
X200000Y212201D01*
X196012Y212201D01*
X193201Y215012D01*
X193201Y218988D01*
X196012Y221799D01*
X199988Y221799D01*
X200199Y221587D01*
X200246Y221552D01*
X200286Y221510D01*
X200359Y221467D01*
X200426Y221416D01*
X200481Y221396D01*
X200531Y221366D01*
X200613Y221345D01*
X200692Y221315D01*
X200750Y221310D01*
X200807Y221296D01*
X200891Y221299D01*
X200975Y221292D01*
X201033Y221303D01*
X201091Y221305D01*
X201171Y221331D01*
X201254Y221347D01*
X201306Y221374D01*
X201362Y221392D01*
X201418Y221432D01*
X201506Y221478D01*
X201579Y221547D01*
X201635Y221587D01*
X234916Y254868D01*
X234968Y254938D01*
X235028Y255002D01*
X235054Y255051D01*
X235087Y255095D01*
X235118Y255177D01*
X235158Y255255D01*
X235166Y255303D01*
X235188Y255361D01*
X235200Y255509D01*
X235213Y255586D01*
X235213Y339672D01*
X235205Y339730D01*
X235207Y339788D01*
X235185Y339870D01*
X235173Y339954D01*
X235150Y340007D01*
X235135Y340063D01*
X235092Y340136D01*
X235057Y340213D01*
X235019Y340258D01*
X234990Y340308D01*
X234928Y340366D01*
X234874Y340430D01*
X234825Y340462D01*
X234782Y340502D01*
X234707Y340541D01*
X234637Y340588D01*
X234581Y340605D01*
X234529Y340632D01*
X234461Y340643D01*
X234366Y340673D01*
X234266Y340676D01*
X234198Y340687D01*
X232012Y340687D01*
X229201Y343498D01*
X229201Y347474D01*
X232012Y350285D01*
X235988Y350285D01*
X236434Y349838D01*
X236481Y349803D01*
X236521Y349761D01*
X236594Y349718D01*
X236661Y349667D01*
X236716Y349647D01*
X236766Y349617D01*
X236848Y349596D01*
X236927Y349566D01*
X236985Y349561D01*
X237042Y349547D01*
X237126Y349550D01*
X237210Y349543D01*
X237268Y349554D01*
X237326Y349556D01*
X237406Y349582D01*
X237489Y349599D01*
X237541Y349625D01*
X237597Y349643D01*
X237653Y349684D01*
X237741Y349730D01*
X237814Y349798D01*
X237870Y349838D01*
X239830Y351799D01*
X243806Y351799D01*
X246617Y348988D01*
X246617Y345012D01*
X244910Y343306D01*
X244858Y343236D01*
X244798Y343172D01*
X244772Y343123D01*
X244739Y343079D01*
X244708Y342997D01*
X244668Y342919D01*
X244660Y342871D01*
X244638Y342813D01*
X244626Y342665D01*
X244613Y342588D01*
X244613Y251272D01*
X209093Y215753D01*
X209058Y215706D01*
X209016Y215666D01*
X208973Y215593D01*
X208922Y215526D01*
X208902Y215471D01*
X208872Y215421D01*
X208851Y215339D01*
X208821Y215260D01*
X208816Y215202D01*
X208802Y215145D01*
X208805Y215061D01*
X208798Y214977D01*
X208809Y214919D01*
X208811Y214861D01*
X208837Y214781D01*
X208854Y214698D01*
X208881Y214646D01*
X208899Y214590D01*
X208939Y214534D01*
X208985Y214446D01*
X209053Y214373D01*
X209093Y214317D01*
X210613Y212798D01*
X210613Y208822D01*
X207802Y206011D01*
X203826Y206011D01*
G37*
%LPD*%
%LPC*%
G36*
X144513Y169471D02*
X144513Y169471D01*
X143471Y170513D01*
X143471Y176469D01*
X143459Y176556D01*
X143456Y176643D01*
X143439Y176696D01*
X143431Y176751D01*
X143396Y176830D01*
X143369Y176914D01*
X143341Y176953D01*
X143315Y177010D01*
X143219Y177123D01*
X143174Y177187D01*
X133479Y186882D01*
X133409Y186934D01*
X133345Y186994D01*
X133296Y187020D01*
X133252Y187053D01*
X133170Y187084D01*
X133092Y187124D01*
X133045Y187132D01*
X132986Y187154D01*
X132838Y187166D01*
X132761Y187179D01*
X100794Y187179D01*
X100736Y187171D01*
X100678Y187173D01*
X100596Y187151D01*
X100512Y187139D01*
X100459Y187116D01*
X100403Y187101D01*
X100330Y187058D01*
X100253Y187023D01*
X100208Y186985D01*
X100158Y186956D01*
X100100Y186894D01*
X100036Y186840D01*
X100004Y186791D01*
X99964Y186748D01*
X99925Y186673D01*
X99878Y186603D01*
X99861Y186547D01*
X99834Y186495D01*
X99823Y186427D01*
X99793Y186332D01*
X99790Y186232D01*
X99779Y186164D01*
X99779Y179253D01*
X98737Y178211D01*
X61263Y178211D01*
X60221Y179253D01*
X60221Y202727D01*
X61263Y203769D01*
X98737Y203769D01*
X99779Y202727D01*
X99779Y195816D01*
X99787Y195758D01*
X99785Y195700D01*
X99807Y195618D01*
X99819Y195534D01*
X99842Y195481D01*
X99857Y195425D01*
X99900Y195352D01*
X99935Y195275D01*
X99973Y195230D01*
X100002Y195180D01*
X100064Y195122D01*
X100118Y195058D01*
X100167Y195026D01*
X100210Y194986D01*
X100285Y194947D01*
X100355Y194900D01*
X100411Y194883D01*
X100463Y194856D01*
X100531Y194845D01*
X100626Y194815D01*
X100726Y194812D01*
X100794Y194801D01*
X136338Y194801D01*
X148813Y182326D01*
X148883Y182274D01*
X148947Y182214D01*
X148996Y182188D01*
X149040Y182155D01*
X149122Y182124D01*
X149200Y182084D01*
X149247Y182076D01*
X149306Y182054D01*
X149454Y182042D01*
X149531Y182029D01*
X155487Y182029D01*
X156529Y180987D01*
X156529Y170513D01*
X155487Y169471D01*
X144513Y169471D01*
G37*
%LPD*%
%LPC*%
G36*
X287367Y53523D02*
X287367Y53523D01*
X283259Y55225D01*
X280115Y58369D01*
X279330Y60263D01*
X279330Y60264D01*
X279329Y60265D01*
X279261Y60381D01*
X279186Y60507D01*
X279185Y60508D01*
X279184Y60510D01*
X279080Y60607D01*
X278979Y60703D01*
X278978Y60703D01*
X278977Y60704D01*
X278851Y60769D01*
X278727Y60833D01*
X278725Y60833D01*
X278724Y60834D01*
X278709Y60836D01*
X278448Y60888D01*
X278417Y60885D01*
X278392Y60889D01*
X263722Y60889D01*
X208851Y115760D01*
X208781Y115812D01*
X208717Y115872D01*
X208668Y115898D01*
X208624Y115931D01*
X208542Y115962D01*
X208464Y116002D01*
X208417Y116010D01*
X208358Y116032D01*
X208210Y116044D01*
X208133Y116057D01*
X203167Y116057D01*
X202125Y117099D01*
X202125Y140925D01*
X203167Y141967D01*
X216833Y141967D01*
X217875Y140925D01*
X217875Y117935D01*
X217887Y117848D01*
X217890Y117761D01*
X217907Y117708D01*
X217915Y117653D01*
X217950Y117574D01*
X217977Y117490D01*
X218005Y117451D01*
X218031Y117394D01*
X218127Y117281D01*
X218172Y117217D01*
X266581Y68808D01*
X266651Y68756D01*
X266715Y68696D01*
X266764Y68670D01*
X266808Y68637D01*
X266890Y68606D01*
X266968Y68566D01*
X267015Y68558D01*
X267074Y68536D01*
X267222Y68524D01*
X267299Y68511D01*
X278392Y68511D01*
X278394Y68511D01*
X278396Y68511D01*
X278535Y68531D01*
X278674Y68551D01*
X278675Y68551D01*
X278677Y68551D01*
X278803Y68608D01*
X278933Y68667D01*
X278935Y68668D01*
X278936Y68669D01*
X279043Y68760D01*
X279150Y68850D01*
X279151Y68852D01*
X279152Y68853D01*
X279161Y68866D01*
X279308Y69087D01*
X279317Y69116D01*
X279330Y69137D01*
X280115Y71031D01*
X283259Y74175D01*
X287367Y75877D01*
X291813Y75877D01*
X295921Y74175D01*
X299065Y71031D01*
X300767Y66923D01*
X300767Y62477D01*
X299065Y58369D01*
X295921Y55225D01*
X291813Y53523D01*
X287367Y53523D01*
G37*
%LPD*%
%LPC*%
G36*
X130263Y211221D02*
X130263Y211221D01*
X129221Y212263D01*
X129221Y225737D01*
X130263Y226779D01*
X130936Y226779D01*
X130994Y226787D01*
X131052Y226785D01*
X131134Y226807D01*
X131218Y226819D01*
X131271Y226842D01*
X131327Y226857D01*
X131400Y226900D01*
X131477Y226935D01*
X131522Y226973D01*
X131572Y227002D01*
X131630Y227064D01*
X131694Y227118D01*
X131726Y227167D01*
X131766Y227210D01*
X131805Y227285D01*
X131852Y227355D01*
X131869Y227411D01*
X131896Y227463D01*
X131907Y227531D01*
X131937Y227626D01*
X131940Y227726D01*
X131951Y227794D01*
X131951Y303317D01*
X131939Y303403D01*
X131936Y303491D01*
X131919Y303543D01*
X131911Y303598D01*
X131876Y303678D01*
X131849Y303761D01*
X131821Y303800D01*
X131795Y303858D01*
X131699Y303971D01*
X131654Y304035D01*
X118785Y316904D01*
X118715Y316956D01*
X118651Y317016D01*
X118601Y317042D01*
X118557Y317075D01*
X118476Y317106D01*
X118398Y317146D01*
X118350Y317154D01*
X118292Y317176D01*
X118144Y317188D01*
X118067Y317201D01*
X116012Y317201D01*
X113201Y320012D01*
X113201Y323988D01*
X116012Y326799D01*
X119988Y326799D01*
X122799Y323988D01*
X122799Y321933D01*
X122811Y321847D01*
X122814Y321759D01*
X122831Y321707D01*
X122839Y321652D01*
X122874Y321572D01*
X122901Y321489D01*
X122929Y321450D01*
X122955Y321392D01*
X123051Y321279D01*
X123096Y321215D01*
X138049Y306263D01*
X138049Y227794D01*
X138057Y227736D01*
X138055Y227678D01*
X138077Y227596D01*
X138089Y227512D01*
X138112Y227459D01*
X138127Y227403D01*
X138170Y227330D01*
X138205Y227253D01*
X138243Y227208D01*
X138272Y227158D01*
X138334Y227100D01*
X138388Y227036D01*
X138437Y227004D01*
X138480Y226964D01*
X138555Y226925D01*
X138625Y226878D01*
X138681Y226861D01*
X138733Y226834D01*
X138801Y226823D01*
X138896Y226793D01*
X138996Y226790D01*
X139064Y226779D01*
X139737Y226779D01*
X140779Y225737D01*
X140779Y223064D01*
X140787Y223006D01*
X140785Y222948D01*
X140807Y222866D01*
X140819Y222782D01*
X140842Y222729D01*
X140857Y222673D01*
X140900Y222600D01*
X140935Y222523D01*
X140973Y222478D01*
X141002Y222428D01*
X141064Y222370D01*
X141118Y222306D01*
X141167Y222274D01*
X141210Y222234D01*
X141285Y222195D01*
X141355Y222148D01*
X141411Y222131D01*
X141463Y222104D01*
X141531Y222093D01*
X141626Y222063D01*
X141726Y222060D01*
X141794Y222049D01*
X150206Y222049D01*
X150264Y222057D01*
X150322Y222055D01*
X150404Y222077D01*
X150488Y222089D01*
X150541Y222112D01*
X150597Y222127D01*
X150670Y222170D01*
X150747Y222205D01*
X150792Y222243D01*
X150842Y222272D01*
X150900Y222334D01*
X150964Y222388D01*
X150996Y222437D01*
X151036Y222480D01*
X151075Y222555D01*
X151122Y222625D01*
X151139Y222681D01*
X151166Y222733D01*
X151177Y222801D01*
X151207Y222896D01*
X151210Y222996D01*
X151221Y223064D01*
X151221Y225737D01*
X152263Y226779D01*
X161737Y226779D01*
X162779Y225737D01*
X162779Y212263D01*
X161737Y211221D01*
X152263Y211221D01*
X151221Y212263D01*
X151221Y214936D01*
X151213Y214994D01*
X151215Y215052D01*
X151193Y215134D01*
X151181Y215218D01*
X151158Y215271D01*
X151143Y215327D01*
X151100Y215400D01*
X151065Y215477D01*
X151027Y215522D01*
X150998Y215572D01*
X150936Y215630D01*
X150882Y215694D01*
X150833Y215726D01*
X150790Y215766D01*
X150715Y215805D01*
X150645Y215852D01*
X150589Y215869D01*
X150537Y215896D01*
X150469Y215907D01*
X150374Y215937D01*
X150274Y215940D01*
X150206Y215951D01*
X141794Y215951D01*
X141736Y215943D01*
X141678Y215945D01*
X141596Y215923D01*
X141512Y215911D01*
X141459Y215888D01*
X141403Y215873D01*
X141330Y215830D01*
X141253Y215795D01*
X141208Y215757D01*
X141158Y215728D01*
X141100Y215666D01*
X141036Y215612D01*
X141004Y215563D01*
X140964Y215520D01*
X140925Y215445D01*
X140878Y215375D01*
X140861Y215319D01*
X140834Y215267D01*
X140823Y215199D01*
X140793Y215104D01*
X140790Y215004D01*
X140779Y214936D01*
X140779Y212263D01*
X139737Y211221D01*
X130263Y211221D01*
G37*
%LPD*%
%LPC*%
G36*
X235012Y166201D02*
X235012Y166201D01*
X232201Y169012D01*
X232201Y172988D01*
X235012Y175799D01*
X237426Y175799D01*
X237512Y175811D01*
X237600Y175814D01*
X237653Y175831D01*
X237707Y175839D01*
X237787Y175874D01*
X237870Y175901D01*
X237910Y175929D01*
X237967Y175955D01*
X238080Y176051D01*
X238144Y176096D01*
X266908Y204860D01*
X266960Y204930D01*
X267020Y204994D01*
X267046Y205043D01*
X267079Y205087D01*
X267110Y205169D01*
X267150Y205247D01*
X267158Y205295D01*
X267180Y205353D01*
X267192Y205501D01*
X267205Y205578D01*
X267205Y258158D01*
X278116Y269068D01*
X278168Y269138D01*
X278228Y269202D01*
X278254Y269251D01*
X278287Y269295D01*
X278318Y269377D01*
X278358Y269455D01*
X278366Y269503D01*
X278388Y269561D01*
X278400Y269709D01*
X278413Y269786D01*
X278413Y270123D01*
X280115Y274231D01*
X283259Y277375D01*
X287367Y279077D01*
X291813Y279077D01*
X295921Y277375D01*
X299065Y274231D01*
X300767Y270123D01*
X300767Y265677D01*
X299065Y261569D01*
X295921Y258425D01*
X291813Y256723D01*
X287367Y256723D01*
X283259Y258425D01*
X280036Y261648D01*
X279989Y261683D01*
X279949Y261725D01*
X279876Y261768D01*
X279809Y261819D01*
X279754Y261840D01*
X279704Y261869D01*
X279622Y261890D01*
X279543Y261920D01*
X279485Y261925D01*
X279428Y261939D01*
X279344Y261936D01*
X279260Y261943D01*
X279203Y261932D01*
X279144Y261930D01*
X279064Y261904D01*
X278981Y261888D01*
X278929Y261861D01*
X278874Y261843D01*
X278817Y261803D01*
X278729Y261757D01*
X278656Y261688D01*
X278600Y261648D01*
X273092Y256140D01*
X273040Y256070D01*
X272980Y256006D01*
X272954Y255957D01*
X272921Y255913D01*
X272890Y255831D01*
X272850Y255753D01*
X272842Y255705D01*
X272820Y255647D01*
X272808Y255499D01*
X272795Y255422D01*
X272795Y202842D01*
X242096Y172144D01*
X242044Y172074D01*
X241984Y172010D01*
X241958Y171961D01*
X241925Y171917D01*
X241894Y171835D01*
X241854Y171757D01*
X241846Y171709D01*
X241824Y171651D01*
X241812Y171503D01*
X241799Y171426D01*
X241799Y169012D01*
X238988Y166201D01*
X235012Y166201D01*
G37*
%LPD*%
%LPC*%
G36*
X3865Y586923D02*
X3865Y586923D01*
X2823Y587965D01*
X2823Y608235D01*
X3865Y609277D01*
X24135Y609277D01*
X25177Y608235D01*
X25177Y587965D01*
X24135Y586923D01*
X3865Y586923D01*
G37*
%LPD*%
%LPC*%
G36*
X230865Y563923D02*
X230865Y563923D01*
X229823Y564965D01*
X229823Y585235D01*
X230865Y586277D01*
X251135Y586277D01*
X252177Y585235D01*
X252177Y564965D01*
X251135Y563923D01*
X230865Y563923D01*
G37*
%LPD*%
%LPC*%
G36*
X73167Y116057D02*
X73167Y116057D01*
X72125Y117099D01*
X72125Y140925D01*
X73167Y141967D01*
X86833Y141967D01*
X87875Y140925D01*
X87875Y117099D01*
X86833Y116057D01*
X73167Y116057D01*
G37*
%LPD*%
%LPC*%
G36*
X287367Y155123D02*
X287367Y155123D01*
X283259Y156825D01*
X280115Y159969D01*
X278413Y164077D01*
X278413Y168523D01*
X280115Y172631D01*
X283259Y175775D01*
X287367Y177477D01*
X291813Y177477D01*
X295921Y175775D01*
X299065Y172631D01*
X300767Y168523D01*
X300767Y164077D01*
X299065Y159969D01*
X295921Y156825D01*
X291813Y155123D01*
X287367Y155123D01*
G37*
%LPD*%
%LPC*%
G36*
X11777Y155123D02*
X11777Y155123D01*
X7669Y156825D01*
X4525Y159969D01*
X2823Y164077D01*
X2823Y168523D01*
X4525Y172631D01*
X7669Y175775D01*
X11777Y177477D01*
X16223Y177477D01*
X20331Y175775D01*
X23475Y172631D01*
X25177Y168523D01*
X25177Y164077D01*
X23475Y159969D01*
X20331Y156825D01*
X16223Y155123D01*
X11777Y155123D01*
G37*
%LPD*%
%LPC*%
G36*
X287367Y129723D02*
X287367Y129723D01*
X283259Y131425D01*
X280115Y134569D01*
X278413Y138677D01*
X278413Y143123D01*
X280115Y147231D01*
X283259Y150375D01*
X287367Y152077D01*
X291813Y152077D01*
X295921Y150375D01*
X299065Y147231D01*
X300767Y143123D01*
X300767Y138677D01*
X299065Y134569D01*
X295921Y131425D01*
X291813Y129723D01*
X287367Y129723D01*
G37*
%LPD*%
%LPC*%
G36*
X11777Y129723D02*
X11777Y129723D01*
X7669Y131425D01*
X4525Y134569D01*
X2823Y138677D01*
X2823Y143123D01*
X4525Y147231D01*
X7669Y150375D01*
X11777Y152077D01*
X16223Y152077D01*
X20331Y150375D01*
X23475Y147231D01*
X25177Y143123D01*
X25177Y138677D01*
X23475Y134569D01*
X20331Y131425D01*
X16223Y129723D01*
X11777Y129723D01*
G37*
%LPD*%
%LPC*%
G36*
X11777Y104323D02*
X11777Y104323D01*
X7669Y106025D01*
X4525Y109169D01*
X2823Y113277D01*
X2823Y117723D01*
X4525Y121831D01*
X7669Y124975D01*
X11777Y126677D01*
X16223Y126677D01*
X20331Y124975D01*
X23475Y121831D01*
X25177Y117723D01*
X25177Y113277D01*
X23475Y109169D01*
X20331Y106025D01*
X16223Y104323D01*
X11777Y104323D01*
G37*
%LPD*%
%LPC*%
G36*
X86377Y563923D02*
X86377Y563923D01*
X82269Y565625D01*
X79125Y568769D01*
X77423Y572877D01*
X77423Y577323D01*
X79125Y581431D01*
X82269Y584575D01*
X86377Y586277D01*
X90823Y586277D01*
X94931Y584575D01*
X98075Y581431D01*
X99777Y577323D01*
X99777Y572877D01*
X98075Y568769D01*
X94931Y565625D01*
X90823Y563923D01*
X86377Y563923D01*
G37*
%LPD*%
%LPC*%
G36*
X60977Y563923D02*
X60977Y563923D01*
X56869Y565625D01*
X53725Y568769D01*
X52023Y572877D01*
X52023Y577323D01*
X53725Y581431D01*
X56869Y584575D01*
X60977Y586277D01*
X65423Y586277D01*
X69531Y584575D01*
X72675Y581431D01*
X74377Y577323D01*
X74377Y572877D01*
X72675Y568769D01*
X69531Y565625D01*
X65423Y563923D01*
X60977Y563923D01*
G37*
%LPD*%
%LPC*%
G36*
X162577Y563923D02*
X162577Y563923D01*
X158469Y565625D01*
X155325Y568769D01*
X153623Y572877D01*
X153623Y577323D01*
X155325Y581431D01*
X158469Y584575D01*
X162577Y586277D01*
X167023Y586277D01*
X171131Y584575D01*
X174275Y581431D01*
X175977Y577323D01*
X175977Y572877D01*
X174275Y568769D01*
X171131Y565625D01*
X167023Y563923D01*
X162577Y563923D01*
G37*
%LPD*%
%LPC*%
G36*
X137177Y563923D02*
X137177Y563923D01*
X133069Y565625D01*
X129925Y568769D01*
X128223Y572877D01*
X128223Y577323D01*
X129925Y581431D01*
X133069Y584575D01*
X137177Y586277D01*
X141623Y586277D01*
X145731Y584575D01*
X148875Y581431D01*
X150577Y577323D01*
X150577Y572877D01*
X148875Y568769D01*
X145731Y565625D01*
X141623Y563923D01*
X137177Y563923D01*
G37*
%LPD*%
%LPC*%
G36*
X111777Y563923D02*
X111777Y563923D01*
X107669Y565625D01*
X104525Y568769D01*
X102823Y572877D01*
X102823Y577323D01*
X104525Y581431D01*
X107669Y584575D01*
X111777Y586277D01*
X116223Y586277D01*
X120331Y584575D01*
X123475Y581431D01*
X125177Y577323D01*
X125177Y572877D01*
X123475Y568769D01*
X120331Y565625D01*
X116223Y563923D01*
X111777Y563923D01*
G37*
%LPD*%
%LPC*%
G36*
X287367Y104323D02*
X287367Y104323D01*
X283259Y106025D01*
X280115Y109169D01*
X278413Y113277D01*
X278413Y117723D01*
X280115Y121831D01*
X283259Y124975D01*
X287367Y126677D01*
X291813Y126677D01*
X295921Y124975D01*
X299065Y121831D01*
X300767Y117723D01*
X300767Y113277D01*
X299065Y109169D01*
X295921Y106025D01*
X291813Y104323D01*
X287367Y104323D01*
G37*
%LPD*%
%LPC*%
G36*
X11777Y78923D02*
X11777Y78923D01*
X7669Y80625D01*
X4525Y83769D01*
X2823Y87877D01*
X2823Y92323D01*
X4525Y96431D01*
X7669Y99575D01*
X11777Y101277D01*
X16223Y101277D01*
X20331Y99575D01*
X23475Y96431D01*
X25177Y92323D01*
X25177Y87877D01*
X23475Y83769D01*
X20331Y80625D01*
X16223Y78923D01*
X11777Y78923D01*
G37*
%LPD*%
%LPC*%
G36*
X11777Y561523D02*
X11777Y561523D01*
X7669Y563225D01*
X4525Y566369D01*
X2823Y570477D01*
X2823Y574923D01*
X4525Y579031D01*
X7669Y582175D01*
X11777Y583877D01*
X16223Y583877D01*
X20331Y582175D01*
X23475Y579031D01*
X25177Y574923D01*
X25177Y570477D01*
X23475Y566369D01*
X20331Y563225D01*
X16223Y561523D01*
X11777Y561523D01*
G37*
%LPD*%
%LPC*%
G36*
X287367Y561523D02*
X287367Y561523D01*
X283259Y563225D01*
X280115Y566369D01*
X278413Y570477D01*
X278413Y574923D01*
X280115Y579031D01*
X283259Y582175D01*
X287367Y583877D01*
X291813Y583877D01*
X295921Y582175D01*
X299065Y579031D01*
X300767Y574923D01*
X300767Y570477D01*
X299065Y566369D01*
X295921Y563225D01*
X291813Y561523D01*
X287367Y561523D01*
G37*
%LPD*%
%LPC*%
G36*
X287367Y78923D02*
X287367Y78923D01*
X283259Y80625D01*
X280115Y83769D01*
X278413Y87877D01*
X278413Y92323D01*
X280115Y96431D01*
X283259Y99575D01*
X287367Y101277D01*
X291813Y101277D01*
X295921Y99575D01*
X299065Y96431D01*
X300767Y92323D01*
X300767Y87877D01*
X299065Y83769D01*
X295921Y80625D01*
X291813Y78923D01*
X287367Y78923D01*
G37*
%LPD*%
%LPC*%
G36*
X11777Y53523D02*
X11777Y53523D01*
X7669Y55225D01*
X4525Y58369D01*
X2823Y62477D01*
X2823Y66923D01*
X4525Y71031D01*
X7669Y74175D01*
X11777Y75877D01*
X16223Y75877D01*
X20331Y74175D01*
X23475Y71031D01*
X25177Y66923D01*
X25177Y62477D01*
X23475Y58369D01*
X20331Y55225D01*
X16223Y53523D01*
X11777Y53523D01*
G37*
%LPD*%
%LPC*%
G36*
X287367Y536123D02*
X287367Y536123D01*
X283259Y537825D01*
X280115Y540969D01*
X278413Y545077D01*
X278413Y549523D01*
X280115Y553631D01*
X283259Y556775D01*
X287367Y558477D01*
X291813Y558477D01*
X295921Y556775D01*
X299065Y553631D01*
X300767Y549523D01*
X300767Y545077D01*
X299065Y540969D01*
X295921Y537825D01*
X291813Y536123D01*
X287367Y536123D01*
G37*
%LPD*%
%LPC*%
G36*
X11777Y536123D02*
X11777Y536123D01*
X7669Y537825D01*
X4525Y540969D01*
X2823Y545077D01*
X2823Y549523D01*
X4525Y553631D01*
X7669Y556775D01*
X11777Y558477D01*
X16223Y558477D01*
X20331Y556775D01*
X23475Y553631D01*
X25177Y549523D01*
X25177Y545077D01*
X23475Y540969D01*
X20331Y537825D01*
X16223Y536123D01*
X11777Y536123D01*
G37*
%LPD*%
%LPC*%
G36*
X11777Y510723D02*
X11777Y510723D01*
X7669Y512425D01*
X4525Y515569D01*
X2823Y519677D01*
X2823Y524123D01*
X4525Y528231D01*
X7669Y531375D01*
X11777Y533077D01*
X16223Y533077D01*
X20331Y531375D01*
X23475Y528231D01*
X25177Y524123D01*
X25177Y519677D01*
X23475Y515569D01*
X20331Y512425D01*
X16223Y510723D01*
X11777Y510723D01*
G37*
%LPD*%
%LPC*%
G36*
X287367Y510723D02*
X287367Y510723D01*
X283259Y512425D01*
X280115Y515569D01*
X278413Y519677D01*
X278413Y524123D01*
X280115Y528231D01*
X283259Y531375D01*
X287367Y533077D01*
X291813Y533077D01*
X295921Y531375D01*
X299065Y528231D01*
X300767Y524123D01*
X300767Y519677D01*
X299065Y515569D01*
X295921Y512425D01*
X291813Y510723D01*
X287367Y510723D01*
G37*
%LPD*%
%LPC*%
G36*
X287367Y485323D02*
X287367Y485323D01*
X283259Y487025D01*
X280115Y490169D01*
X278413Y494277D01*
X278413Y498723D01*
X280115Y502831D01*
X283259Y505975D01*
X287367Y507677D01*
X291813Y507677D01*
X295921Y505975D01*
X299065Y502831D01*
X300767Y498723D01*
X300767Y494277D01*
X299065Y490169D01*
X295921Y487025D01*
X291813Y485323D01*
X287367Y485323D01*
G37*
%LPD*%
%LPC*%
G36*
X11777Y485323D02*
X11777Y485323D01*
X7669Y487025D01*
X4525Y490169D01*
X2823Y494277D01*
X2823Y498723D01*
X4525Y502831D01*
X7669Y505975D01*
X11777Y507677D01*
X16223Y507677D01*
X20331Y505975D01*
X23475Y502831D01*
X25177Y498723D01*
X25177Y494277D01*
X23475Y490169D01*
X20331Y487025D01*
X16223Y485323D01*
X11777Y485323D01*
G37*
%LPD*%
%LPC*%
G36*
X287367Y459923D02*
X287367Y459923D01*
X283259Y461625D01*
X280115Y464769D01*
X278413Y468877D01*
X278413Y473323D01*
X280115Y477431D01*
X283259Y480575D01*
X287367Y482277D01*
X291813Y482277D01*
X295921Y480575D01*
X299065Y477431D01*
X300767Y473323D01*
X300767Y468877D01*
X299065Y464769D01*
X295921Y461625D01*
X291813Y459923D01*
X287367Y459923D01*
G37*
%LPD*%
%LPC*%
G36*
X11777Y459923D02*
X11777Y459923D01*
X7669Y461625D01*
X4525Y464769D01*
X2823Y468877D01*
X2823Y473323D01*
X4525Y477431D01*
X7669Y480575D01*
X11777Y482277D01*
X16223Y482277D01*
X20331Y480575D01*
X23475Y477431D01*
X25177Y473323D01*
X25177Y468877D01*
X23475Y464769D01*
X20331Y461625D01*
X16223Y459923D01*
X11777Y459923D01*
G37*
%LPD*%
%LPC*%
G36*
X287367Y434523D02*
X287367Y434523D01*
X283259Y436225D01*
X280115Y439369D01*
X278413Y443477D01*
X278413Y447923D01*
X280115Y452031D01*
X283259Y455175D01*
X287367Y456877D01*
X291813Y456877D01*
X295921Y455175D01*
X299065Y452031D01*
X300767Y447923D01*
X300767Y443477D01*
X299065Y439369D01*
X295921Y436225D01*
X291813Y434523D01*
X287367Y434523D01*
G37*
%LPD*%
%LPC*%
G36*
X11777Y434523D02*
X11777Y434523D01*
X7669Y436225D01*
X4525Y439369D01*
X2823Y443477D01*
X2823Y447923D01*
X4525Y452031D01*
X7669Y455175D01*
X11777Y456877D01*
X16223Y456877D01*
X20331Y455175D01*
X23475Y452031D01*
X25177Y447923D01*
X25177Y443477D01*
X23475Y439369D01*
X20331Y436225D01*
X16223Y434523D01*
X11777Y434523D01*
G37*
%LPD*%
%LPC*%
G36*
X287367Y409123D02*
X287367Y409123D01*
X283259Y410825D01*
X280115Y413969D01*
X278413Y418077D01*
X278413Y422523D01*
X280115Y426631D01*
X283259Y429775D01*
X287367Y431477D01*
X291813Y431477D01*
X295921Y429775D01*
X299065Y426631D01*
X300767Y422523D01*
X300767Y418077D01*
X299065Y413969D01*
X295921Y410825D01*
X291813Y409123D01*
X287367Y409123D01*
G37*
%LPD*%
%LPC*%
G36*
X11777Y409123D02*
X11777Y409123D01*
X7669Y410825D01*
X4525Y413969D01*
X2823Y418077D01*
X2823Y422523D01*
X4525Y426631D01*
X7669Y429775D01*
X11777Y431477D01*
X16223Y431477D01*
X20331Y429775D01*
X23475Y426631D01*
X25177Y422523D01*
X25177Y418077D01*
X23475Y413969D01*
X20331Y410825D01*
X16223Y409123D01*
X11777Y409123D01*
G37*
%LPD*%
%LPC*%
G36*
X287367Y383723D02*
X287367Y383723D01*
X283259Y385425D01*
X280115Y388569D01*
X278413Y392677D01*
X278413Y397123D01*
X280115Y401231D01*
X283259Y404375D01*
X287367Y406077D01*
X291813Y406077D01*
X295921Y404375D01*
X299065Y401231D01*
X300767Y397123D01*
X300767Y392677D01*
X299065Y388569D01*
X295921Y385425D01*
X291813Y383723D01*
X287367Y383723D01*
G37*
%LPD*%
%LPC*%
G36*
X11777Y383723D02*
X11777Y383723D01*
X7669Y385425D01*
X4525Y388569D01*
X2823Y392677D01*
X2823Y397123D01*
X4525Y401231D01*
X7669Y404375D01*
X11777Y406077D01*
X16223Y406077D01*
X20331Y404375D01*
X23475Y401231D01*
X25177Y397123D01*
X25177Y392677D01*
X23475Y388569D01*
X20331Y385425D01*
X16223Y383723D01*
X11777Y383723D01*
G37*
%LPD*%
%LPC*%
G36*
X11777Y358323D02*
X11777Y358323D01*
X7669Y360025D01*
X4525Y363169D01*
X2823Y367277D01*
X2823Y371723D01*
X4525Y375831D01*
X7669Y378975D01*
X11777Y380677D01*
X16223Y380677D01*
X20331Y378975D01*
X23475Y375831D01*
X25177Y371723D01*
X25177Y367277D01*
X23475Y363169D01*
X20331Y360025D01*
X16223Y358323D01*
X11777Y358323D01*
G37*
%LPD*%
%LPC*%
G36*
X287367Y358323D02*
X287367Y358323D01*
X283259Y360025D01*
X280115Y363169D01*
X278413Y367277D01*
X278413Y371723D01*
X280115Y375831D01*
X283259Y378975D01*
X287367Y380677D01*
X291813Y380677D01*
X295921Y378975D01*
X299065Y375831D01*
X300767Y371723D01*
X300767Y367277D01*
X299065Y363169D01*
X295921Y360025D01*
X291813Y358323D01*
X287367Y358323D01*
G37*
%LPD*%
%LPC*%
G36*
X11777Y332923D02*
X11777Y332923D01*
X7669Y334625D01*
X4525Y337769D01*
X2823Y341877D01*
X2823Y346323D01*
X4525Y350431D01*
X7669Y353575D01*
X11777Y355277D01*
X16223Y355277D01*
X20331Y353575D01*
X23475Y350431D01*
X25177Y346323D01*
X25177Y341877D01*
X23475Y337769D01*
X20331Y334625D01*
X16223Y332923D01*
X11777Y332923D01*
G37*
%LPD*%
%LPC*%
G36*
X287367Y332923D02*
X287367Y332923D01*
X283259Y334625D01*
X280115Y337769D01*
X278413Y341877D01*
X278413Y346323D01*
X280115Y350431D01*
X283259Y353575D01*
X287367Y355277D01*
X291813Y355277D01*
X295921Y353575D01*
X299065Y350431D01*
X300767Y346323D01*
X300767Y341877D01*
X299065Y337769D01*
X295921Y334625D01*
X291813Y332923D01*
X287367Y332923D01*
G37*
%LPD*%
%LPC*%
G36*
X287367Y307523D02*
X287367Y307523D01*
X283259Y309225D01*
X280115Y312369D01*
X278413Y316477D01*
X278413Y320923D01*
X280115Y325031D01*
X283259Y328175D01*
X287367Y329877D01*
X291813Y329877D01*
X295921Y328175D01*
X299065Y325031D01*
X300767Y320923D01*
X300767Y316477D01*
X299065Y312369D01*
X295921Y309225D01*
X291813Y307523D01*
X287367Y307523D01*
G37*
%LPD*%
%LPC*%
G36*
X11777Y307523D02*
X11777Y307523D01*
X7669Y309225D01*
X4525Y312369D01*
X2823Y316477D01*
X2823Y320923D01*
X4525Y325031D01*
X7669Y328175D01*
X11777Y329877D01*
X16223Y329877D01*
X20331Y328175D01*
X23475Y325031D01*
X25177Y320923D01*
X25177Y316477D01*
X23475Y312369D01*
X20331Y309225D01*
X16223Y307523D01*
X11777Y307523D01*
G37*
%LPD*%
%LPC*%
G36*
X287367Y282123D02*
X287367Y282123D01*
X283259Y283825D01*
X280115Y286969D01*
X278413Y291077D01*
X278413Y295523D01*
X280115Y299631D01*
X283259Y302775D01*
X287367Y304477D01*
X291813Y304477D01*
X295921Y302775D01*
X299065Y299631D01*
X300767Y295523D01*
X300767Y291077D01*
X299065Y286969D01*
X295921Y283825D01*
X291813Y282123D01*
X287367Y282123D01*
G37*
%LPD*%
%LPC*%
G36*
X11777Y282123D02*
X11777Y282123D01*
X7669Y283825D01*
X4525Y286969D01*
X2823Y291077D01*
X2823Y295523D01*
X4525Y299631D01*
X7669Y302775D01*
X11777Y304477D01*
X16223Y304477D01*
X20331Y302775D01*
X23475Y299631D01*
X25177Y295523D01*
X25177Y291077D01*
X23475Y286969D01*
X20331Y283825D01*
X16223Y282123D01*
X11777Y282123D01*
G37*
%LPD*%
%LPC*%
G36*
X11777Y256723D02*
X11777Y256723D01*
X7669Y258425D01*
X4525Y261569D01*
X2823Y265677D01*
X2823Y270123D01*
X4525Y274231D01*
X7669Y277375D01*
X11777Y279077D01*
X16223Y279077D01*
X20331Y277375D01*
X23475Y274231D01*
X25177Y270123D01*
X25177Y265677D01*
X23475Y261569D01*
X20331Y258425D01*
X16223Y256723D01*
X11777Y256723D01*
G37*
%LPD*%
%LPC*%
G36*
X287367Y231323D02*
X287367Y231323D01*
X283259Y233025D01*
X280115Y236169D01*
X278413Y240277D01*
X278413Y244723D01*
X280115Y248831D01*
X283259Y251975D01*
X287367Y253677D01*
X291813Y253677D01*
X295921Y251975D01*
X299065Y248831D01*
X300767Y244723D01*
X300767Y240277D01*
X299065Y236169D01*
X295921Y233025D01*
X291813Y231323D01*
X287367Y231323D01*
G37*
%LPD*%
%LPC*%
G36*
X11777Y231323D02*
X11777Y231323D01*
X7669Y233025D01*
X4525Y236169D01*
X2823Y240277D01*
X2823Y244723D01*
X4525Y248831D01*
X7669Y251975D01*
X11777Y253677D01*
X16223Y253677D01*
X20331Y251975D01*
X23475Y248831D01*
X25177Y244723D01*
X25177Y240277D01*
X23475Y236169D01*
X20331Y233025D01*
X16223Y231323D01*
X11777Y231323D01*
G37*
%LPD*%
%LPC*%
G36*
X11777Y205923D02*
X11777Y205923D01*
X7669Y207625D01*
X4525Y210769D01*
X2823Y214877D01*
X2823Y219323D01*
X4525Y223431D01*
X7669Y226575D01*
X11777Y228277D01*
X16223Y228277D01*
X20331Y226575D01*
X23475Y223431D01*
X25177Y219323D01*
X25177Y214877D01*
X23475Y210769D01*
X20331Y207625D01*
X16223Y205923D01*
X11777Y205923D01*
G37*
%LPD*%
%LPC*%
G36*
X287367Y205923D02*
X287367Y205923D01*
X283259Y207625D01*
X280115Y210769D01*
X278413Y214877D01*
X278413Y219323D01*
X280115Y223431D01*
X283259Y226575D01*
X287367Y228277D01*
X291813Y228277D01*
X295921Y226575D01*
X299065Y223431D01*
X300767Y219323D01*
X300767Y214877D01*
X299065Y210769D01*
X295921Y207625D01*
X291813Y205923D01*
X287367Y205923D01*
G37*
%LPD*%
%LPC*%
G36*
X287367Y180523D02*
X287367Y180523D01*
X283259Y182225D01*
X280115Y185369D01*
X278413Y189477D01*
X278413Y193923D01*
X280115Y198031D01*
X283259Y201175D01*
X287367Y202877D01*
X291813Y202877D01*
X295921Y201175D01*
X299065Y198031D01*
X300767Y193923D01*
X300767Y189477D01*
X299065Y185369D01*
X295921Y182225D01*
X291813Y180523D01*
X287367Y180523D01*
G37*
%LPD*%
%LPC*%
G36*
X11777Y180523D02*
X11777Y180523D01*
X7669Y182225D01*
X4525Y185369D01*
X2823Y189477D01*
X2823Y193923D01*
X4525Y198031D01*
X7669Y201175D01*
X11777Y202877D01*
X16223Y202877D01*
X20331Y201175D01*
X23475Y198031D01*
X25177Y193923D01*
X25177Y189477D01*
X23475Y185369D01*
X20331Y182225D01*
X16223Y180523D01*
X11777Y180523D01*
G37*
%LPD*%
%LPC*%
G36*
X168012Y73201D02*
X168012Y73201D01*
X165201Y76012D01*
X165201Y76989D01*
X165189Y77076D01*
X165186Y77163D01*
X165169Y77216D01*
X165161Y77271D01*
X165126Y77350D01*
X165099Y77434D01*
X165071Y77473D01*
X165045Y77530D01*
X164949Y77643D01*
X164904Y77707D01*
X162469Y80142D01*
X162399Y80194D01*
X162335Y80254D01*
X162286Y80280D01*
X162242Y80313D01*
X162160Y80344D01*
X162082Y80384D01*
X162035Y80392D01*
X161976Y80414D01*
X161828Y80426D01*
X161751Y80439D01*
X157544Y80439D01*
X157486Y80431D01*
X157428Y80433D01*
X157346Y80411D01*
X157262Y80399D01*
X157209Y80376D01*
X157153Y80361D01*
X157080Y80318D01*
X157003Y80283D01*
X156958Y80245D01*
X156908Y80216D01*
X156850Y80154D01*
X156786Y80100D01*
X156754Y80051D01*
X156714Y80008D01*
X156675Y79933D01*
X156628Y79863D01*
X156611Y79807D01*
X156584Y79755D01*
X156573Y79687D01*
X156543Y79592D01*
X156540Y79492D01*
X156529Y79424D01*
X156529Y79013D01*
X155487Y77971D01*
X144513Y77971D01*
X143471Y79013D01*
X143471Y89487D01*
X144513Y90529D01*
X155487Y90529D01*
X156529Y89487D01*
X156529Y89076D01*
X156537Y89018D01*
X156535Y88960D01*
X156557Y88878D01*
X156569Y88794D01*
X156592Y88741D01*
X156607Y88685D01*
X156650Y88612D01*
X156685Y88535D01*
X156723Y88490D01*
X156752Y88440D01*
X156814Y88382D01*
X156868Y88318D01*
X156917Y88286D01*
X156960Y88246D01*
X157035Y88207D01*
X157105Y88160D01*
X157161Y88143D01*
X157213Y88116D01*
X157281Y88105D01*
X157376Y88075D01*
X157476Y88072D01*
X157544Y88061D01*
X165328Y88061D01*
X170293Y83096D01*
X170363Y83044D01*
X170427Y82984D01*
X170476Y82958D01*
X170520Y82925D01*
X170602Y82894D01*
X170680Y82854D01*
X170727Y82846D01*
X170786Y82824D01*
X170934Y82812D01*
X171011Y82799D01*
X171988Y82799D01*
X174799Y79988D01*
X174799Y76012D01*
X171988Y73201D01*
X168012Y73201D01*
G37*
%LPD*%
%LPC*%
G36*
X110531Y51031D02*
X110531Y51031D01*
X110531Y63338D01*
X111890Y63122D01*
X114058Y62418D01*
X116089Y61383D01*
X117932Y60044D01*
X119544Y58432D01*
X120883Y56589D01*
X121918Y54558D01*
X122622Y52390D01*
X122838Y51031D01*
X110531Y51031D01*
G37*
%LPD*%
%LPC*%
G36*
X94162Y51031D02*
X94162Y51031D01*
X94378Y52390D01*
X95082Y54558D01*
X96117Y56589D01*
X97456Y58432D01*
X99068Y60044D01*
X100911Y61383D01*
X102942Y62418D01*
X105110Y63122D01*
X106469Y63338D01*
X106469Y51031D01*
X94162Y51031D01*
G37*
%LPD*%
%LPC*%
G36*
X110531Y46969D02*
X110531Y46969D01*
X122838Y46969D01*
X122622Y45610D01*
X121918Y43442D01*
X120883Y41411D01*
X119544Y39568D01*
X117932Y37956D01*
X116089Y36617D01*
X114058Y35582D01*
X111890Y34878D01*
X110531Y34662D01*
X110531Y46969D01*
G37*
%LPD*%
%LPC*%
G36*
X105110Y34878D02*
X105110Y34878D01*
X102942Y35582D01*
X100911Y36617D01*
X99068Y37956D01*
X97456Y39568D01*
X96117Y41411D01*
X95082Y43442D01*
X94378Y45610D01*
X94162Y46969D01*
X106469Y46969D01*
X106469Y34662D01*
X105110Y34878D01*
G37*
%LPD*%
%LPC*%
G36*
X291621Y15931D02*
X291621Y15931D01*
X291621Y25077D01*
X299222Y25077D01*
X299675Y24956D01*
X300080Y24721D01*
X300411Y24390D01*
X300646Y23985D01*
X300767Y23532D01*
X300767Y15931D01*
X291621Y15931D01*
G37*
%LPD*%
%LPC*%
G36*
X278413Y15931D02*
X278413Y15931D01*
X278413Y23532D01*
X278534Y23985D01*
X278769Y24390D01*
X279100Y24721D01*
X279505Y24956D01*
X279958Y25077D01*
X287559Y25077D01*
X287559Y15931D01*
X278413Y15931D01*
G37*
%LPD*%
%LPC*%
G36*
X291621Y2723D02*
X291621Y2723D01*
X291621Y11869D01*
X300767Y11869D01*
X300767Y4268D01*
X300646Y3815D01*
X300411Y3410D01*
X300080Y3079D01*
X299675Y2844D01*
X299222Y2723D01*
X291621Y2723D01*
G37*
%LPD*%
%LPC*%
G36*
X279958Y2723D02*
X279958Y2723D01*
X279505Y2844D01*
X279100Y3079D01*
X278769Y3410D01*
X278534Y3815D01*
X278413Y4268D01*
X278413Y11869D01*
X287559Y11869D01*
X287559Y2723D01*
X279958Y2723D01*
G37*
%LPD*%
%LPC*%
G36*
X235145Y131043D02*
X235145Y131043D01*
X235145Y141967D01*
X239444Y141967D01*
X239897Y141846D01*
X240302Y141611D01*
X240633Y141280D01*
X240868Y140875D01*
X240989Y140422D01*
X240989Y131043D01*
X235145Y131043D01*
G37*
%LPD*%
%LPC*%
G36*
X105145Y131043D02*
X105145Y131043D01*
X105145Y141967D01*
X109444Y141967D01*
X109897Y141846D01*
X110302Y141611D01*
X110633Y141280D01*
X110868Y140875D01*
X110989Y140422D01*
X110989Y131043D01*
X105145Y131043D01*
G37*
%LPD*%
%LPC*%
G36*
X105145Y116057D02*
X105145Y116057D01*
X105145Y126981D01*
X110989Y126981D01*
X110989Y117602D01*
X110868Y117149D01*
X110633Y116744D01*
X110302Y116413D01*
X109897Y116178D01*
X109444Y116057D01*
X105145Y116057D01*
G37*
%LPD*%
%LPC*%
G36*
X235145Y116057D02*
X235145Y116057D01*
X235145Y126981D01*
X240989Y126981D01*
X240989Y117602D01*
X240868Y117149D01*
X240633Y116744D01*
X240302Y116413D01*
X239897Y116178D01*
X239444Y116057D01*
X235145Y116057D01*
G37*
%LPD*%
%LPC*%
G36*
X225239Y131043D02*
X225239Y131043D01*
X225239Y140422D01*
X225360Y140875D01*
X225595Y141280D01*
X225926Y141611D01*
X226331Y141846D01*
X226784Y141967D01*
X231083Y141967D01*
X231083Y131043D01*
X225239Y131043D01*
G37*
%LPD*%
%LPC*%
G36*
X95239Y131043D02*
X95239Y131043D01*
X95239Y140422D01*
X95360Y140875D01*
X95595Y141280D01*
X95926Y141611D01*
X96331Y141846D01*
X96784Y141967D01*
X101083Y141967D01*
X101083Y131043D01*
X95239Y131043D01*
G37*
%LPD*%
%LPC*%
G36*
X226784Y116057D02*
X226784Y116057D01*
X226331Y116178D01*
X225926Y116413D01*
X225595Y116744D01*
X225360Y117149D01*
X225239Y117602D01*
X225239Y126981D01*
X231083Y126981D01*
X231083Y116057D01*
X226784Y116057D01*
G37*
%LPD*%
%LPC*%
G36*
X96784Y116057D02*
X96784Y116057D01*
X96331Y116178D01*
X95926Y116413D01*
X95595Y116744D01*
X95360Y117149D01*
X95239Y117602D01*
X95239Y126981D01*
X101083Y126981D01*
X101083Y116057D01*
X96784Y116057D01*
G37*
%LPD*%
%LPC*%
G36*
X291621Y600131D02*
X291621Y600131D01*
X291621Y609094D01*
X292207Y609002D01*
X293880Y608458D01*
X295448Y607659D01*
X296871Y606625D01*
X298115Y605381D01*
X299149Y603958D01*
X299948Y602390D01*
X300492Y600717D01*
X300584Y600131D01*
X291621Y600131D01*
G37*
%LPD*%
%LPC*%
G36*
X192231Y577131D02*
X192231Y577131D01*
X192231Y586094D01*
X192817Y586002D01*
X194490Y585458D01*
X196058Y584659D01*
X197481Y583625D01*
X198725Y582381D01*
X199759Y580958D01*
X200558Y579390D01*
X201102Y577717D01*
X201194Y577131D01*
X192231Y577131D01*
G37*
%LPD*%
%LPC*%
G36*
X16031Y15931D02*
X16031Y15931D01*
X16031Y24894D01*
X16617Y24802D01*
X18290Y24258D01*
X19858Y23459D01*
X21281Y22425D01*
X22525Y21181D01*
X23559Y19758D01*
X24358Y18190D01*
X24902Y16517D01*
X24994Y15931D01*
X16031Y15931D01*
G37*
%LPD*%
%LPC*%
G36*
X278596Y600131D02*
X278596Y600131D01*
X278688Y600717D01*
X279232Y602390D01*
X280031Y603958D01*
X281065Y605381D01*
X282309Y606625D01*
X283732Y607659D01*
X285300Y608458D01*
X286973Y609002D01*
X287559Y609094D01*
X287559Y600131D01*
X278596Y600131D01*
G37*
%LPD*%
%LPC*%
G36*
X291621Y596069D02*
X291621Y596069D01*
X300584Y596069D01*
X300492Y595483D01*
X299948Y593810D01*
X299149Y592242D01*
X298115Y590819D01*
X296871Y589575D01*
X295448Y588541D01*
X293880Y587742D01*
X292207Y587198D01*
X291621Y587106D01*
X291621Y596069D01*
G37*
%LPD*%
%LPC*%
G36*
X179206Y577131D02*
X179206Y577131D01*
X179298Y577717D01*
X179842Y579390D01*
X180641Y580958D01*
X181675Y582381D01*
X182919Y583625D01*
X184342Y584659D01*
X185910Y585458D01*
X187583Y586002D01*
X188169Y586094D01*
X188169Y577131D01*
X179206Y577131D01*
G37*
%LPD*%
%LPC*%
G36*
X3006Y15931D02*
X3006Y15931D01*
X3098Y16517D01*
X3642Y18190D01*
X4441Y19758D01*
X5475Y21181D01*
X6719Y22425D01*
X8142Y23459D01*
X9710Y24258D01*
X11383Y24802D01*
X11969Y24894D01*
X11969Y15931D01*
X3006Y15931D01*
G37*
%LPD*%
%LPC*%
G36*
X192231Y573069D02*
X192231Y573069D01*
X201194Y573069D01*
X201102Y572483D01*
X200558Y570810D01*
X199759Y569242D01*
X198725Y567819D01*
X197481Y566575D01*
X196058Y565541D01*
X194490Y564742D01*
X192817Y564198D01*
X192231Y564106D01*
X192231Y573069D01*
G37*
%LPD*%
%LPC*%
G36*
X16031Y11869D02*
X16031Y11869D01*
X24994Y11869D01*
X24902Y11283D01*
X24358Y9610D01*
X23559Y8042D01*
X22525Y6619D01*
X21281Y5375D01*
X19858Y4341D01*
X18290Y3542D01*
X16617Y2998D01*
X16031Y2906D01*
X16031Y11869D01*
G37*
%LPD*%
%LPC*%
G36*
X11383Y2998D02*
X11383Y2998D01*
X9710Y3542D01*
X8142Y4341D01*
X6719Y5375D01*
X5475Y6619D01*
X4441Y8042D01*
X3642Y9610D01*
X3098Y11283D01*
X3006Y11869D01*
X11969Y11869D01*
X11969Y2906D01*
X11383Y2998D01*
G37*
%LPD*%
%LPC*%
G36*
X286973Y587198D02*
X286973Y587198D01*
X285300Y587742D01*
X283732Y588541D01*
X282309Y589575D01*
X281065Y590819D01*
X280031Y592242D01*
X279232Y593810D01*
X278688Y595483D01*
X278596Y596069D01*
X287559Y596069D01*
X287559Y587106D01*
X286973Y587198D01*
G37*
%LPD*%
%LPC*%
G36*
X187583Y564198D02*
X187583Y564198D01*
X185910Y564742D01*
X184342Y565541D01*
X182919Y566575D01*
X181675Y567819D01*
X180641Y569242D01*
X179842Y570810D01*
X179298Y572483D01*
X179206Y573069D01*
X188169Y573069D01*
X188169Y564106D01*
X187583Y564198D01*
G37*
%LPD*%
%LPC*%
G36*
X90999Y91999D02*
X90999Y91999D01*
X90999Y97779D01*
X93234Y97779D01*
X93687Y97658D01*
X94092Y97423D01*
X94423Y97092D01*
X94658Y96687D01*
X94779Y96234D01*
X94779Y91999D01*
X90999Y91999D01*
G37*
%LPD*%
%LPC*%
G36*
X118999Y220999D02*
X118999Y220999D01*
X118999Y226779D01*
X121234Y226779D01*
X121687Y226658D01*
X122092Y226423D01*
X122423Y226092D01*
X122658Y225687D01*
X122779Y225234D01*
X122779Y220999D01*
X118999Y220999D01*
G37*
%LPD*%
%LPC*%
G36*
X194999Y247999D02*
X194999Y247999D01*
X194999Y253779D01*
X197234Y253779D01*
X197687Y253658D01*
X198092Y253423D01*
X198423Y253092D01*
X198658Y252687D01*
X198779Y252234D01*
X198779Y247999D01*
X194999Y247999D01*
G37*
%LPD*%
%LPC*%
G36*
X206999Y92999D02*
X206999Y92999D01*
X206999Y98779D01*
X209234Y98779D01*
X209687Y98658D01*
X210092Y98423D01*
X210423Y98092D01*
X210658Y97687D01*
X210779Y97234D01*
X210779Y92999D01*
X206999Y92999D01*
G37*
%LPD*%
%LPC*%
G36*
X118999Y211221D02*
X118999Y211221D01*
X118999Y217001D01*
X122779Y217001D01*
X122779Y212766D01*
X122658Y212313D01*
X122423Y211908D01*
X122092Y211577D01*
X121687Y211342D01*
X121234Y211221D01*
X118999Y211221D01*
G37*
%LPD*%
%LPC*%
G36*
X206999Y83221D02*
X206999Y83221D01*
X206999Y89001D01*
X210779Y89001D01*
X210779Y84766D01*
X210658Y84313D01*
X210423Y83908D01*
X210092Y83577D01*
X209687Y83342D01*
X209234Y83221D01*
X206999Y83221D01*
G37*
%LPD*%
%LPC*%
G36*
X90999Y82221D02*
X90999Y82221D01*
X90999Y88001D01*
X94779Y88001D01*
X94779Y83766D01*
X94658Y83313D01*
X94423Y82908D01*
X94092Y82577D01*
X93687Y82342D01*
X93234Y82221D01*
X90999Y82221D01*
G37*
%LPD*%
%LPC*%
G36*
X194999Y238221D02*
X194999Y238221D01*
X194999Y244001D01*
X198779Y244001D01*
X198779Y239766D01*
X198658Y239313D01*
X198423Y238908D01*
X198092Y238577D01*
X197687Y238342D01*
X197234Y238221D01*
X194999Y238221D01*
G37*
%LPD*%
%LPC*%
G36*
X83221Y91999D02*
X83221Y91999D01*
X83221Y96234D01*
X83342Y96687D01*
X83577Y97092D01*
X83908Y97423D01*
X84313Y97658D01*
X84766Y97779D01*
X87001Y97779D01*
X87001Y91999D01*
X83221Y91999D01*
G37*
%LPD*%
%LPC*%
G36*
X111221Y220999D02*
X111221Y220999D01*
X111221Y225234D01*
X111342Y225687D01*
X111577Y226092D01*
X111908Y226423D01*
X112313Y226658D01*
X112766Y226779D01*
X115001Y226779D01*
X115001Y220999D01*
X111221Y220999D01*
G37*
%LPD*%
%LPC*%
G36*
X187221Y247999D02*
X187221Y247999D01*
X187221Y252234D01*
X187342Y252687D01*
X187577Y253092D01*
X187908Y253423D01*
X188313Y253658D01*
X188766Y253779D01*
X191001Y253779D01*
X191001Y247999D01*
X187221Y247999D01*
G37*
%LPD*%
%LPC*%
G36*
X199221Y92999D02*
X199221Y92999D01*
X199221Y97234D01*
X199342Y97687D01*
X199577Y98092D01*
X199908Y98423D01*
X200313Y98658D01*
X200766Y98779D01*
X203001Y98779D01*
X203001Y92999D01*
X199221Y92999D01*
G37*
%LPD*%
%LPC*%
G36*
X200766Y83221D02*
X200766Y83221D01*
X200313Y83342D01*
X199908Y83577D01*
X199577Y83908D01*
X199342Y84313D01*
X199221Y84766D01*
X199221Y89001D01*
X203001Y89001D01*
X203001Y83221D01*
X200766Y83221D01*
G37*
%LPD*%
%LPC*%
G36*
X84766Y82221D02*
X84766Y82221D01*
X84313Y82342D01*
X83908Y82577D01*
X83577Y82908D01*
X83342Y83313D01*
X83221Y83766D01*
X83221Y88001D01*
X87001Y88001D01*
X87001Y82221D01*
X84766Y82221D01*
G37*
%LPD*%
%LPC*%
G36*
X112766Y211221D02*
X112766Y211221D01*
X112313Y211342D01*
X111908Y211577D01*
X111577Y211908D01*
X111342Y212313D01*
X111221Y212766D01*
X111221Y217001D01*
X115001Y217001D01*
X115001Y211221D01*
X112766Y211221D01*
G37*
%LPD*%
%LPC*%
G36*
X188766Y238221D02*
X188766Y238221D01*
X188313Y238342D01*
X187908Y238577D01*
X187577Y238908D01*
X187342Y239313D01*
X187221Y239766D01*
X187221Y244001D01*
X191001Y244001D01*
X191001Y238221D01*
X188766Y238221D01*
G37*
%LPD*%
%LPC*%
G36*
X190199Y575099D02*
X190199Y575099D01*
X190199Y575101D01*
X190201Y575101D01*
X190201Y575099D01*
X190199Y575099D01*
G37*
%LPD*%
%LPC*%
G36*
X289589Y13899D02*
X289589Y13899D01*
X289589Y13901D01*
X289591Y13901D01*
X289591Y13899D01*
X289589Y13899D01*
G37*
%LPD*%
%LPC*%
G36*
X13999Y13899D02*
X13999Y13899D01*
X13999Y13901D01*
X14001Y13901D01*
X14001Y13899D01*
X13999Y13899D01*
G37*
%LPD*%
%LPC*%
G36*
X289589Y598099D02*
X289589Y598099D01*
X289589Y598101D01*
X289591Y598101D01*
X289591Y598099D01*
X289589Y598099D01*
G37*
%LPD*%
%LPC*%
G36*
X108499Y48999D02*
X108499Y48999D01*
X108499Y49001D01*
X108501Y49001D01*
X108501Y48999D01*
X108499Y48999D01*
G37*
%LPD*%
%LPC*%
G36*
X103113Y129011D02*
X103113Y129011D01*
X103113Y129013D01*
X103115Y129013D01*
X103115Y129011D01*
X103113Y129011D01*
G37*
%LPD*%
%LPC*%
G36*
X233113Y129011D02*
X233113Y129011D01*
X233113Y129013D01*
X233115Y129013D01*
X233115Y129011D01*
X233113Y129011D01*
G37*
%LPD*%
D10*
X150000Y175750D03*
X150000Y144250D03*
X150000Y84250D03*
X150000Y115750D03*
D11*
X108500Y49000D03*
D12*
X73500Y49000D03*
D13*
X241000Y575100D03*
D14*
X215600Y575100D03*
X190200Y575100D03*
X164800Y575100D03*
X139400Y575100D03*
X114000Y575100D03*
X88600Y575100D03*
X63200Y575100D03*
D15*
X103114Y129012D03*
X80000Y129012D03*
X56886Y129012D03*
D16*
X80000Y190990D03*
D15*
X233114Y129012D03*
X210000Y129012D03*
X186886Y129012D03*
D16*
X210000Y190990D03*
D17*
X71000Y90000D03*
X89000Y90000D03*
X187000Y91000D03*
X205000Y91000D03*
X175000Y246000D03*
X193000Y246000D03*
X175000Y219000D03*
X157000Y219000D03*
X135000Y219000D03*
X117000Y219000D03*
D14*
X14000Y394900D03*
X14000Y369500D03*
X14000Y344100D03*
X14000Y318700D03*
X14000Y293300D03*
X14000Y267900D03*
X14000Y242500D03*
X14000Y217100D03*
X14000Y191700D03*
X14000Y166300D03*
X14000Y140900D03*
X14000Y115500D03*
X14000Y90100D03*
X14000Y64700D03*
X14000Y39300D03*
X14000Y13900D03*
D13*
X14000Y598100D03*
D14*
X14000Y572700D03*
X14000Y547300D03*
X14000Y521900D03*
X14000Y496500D03*
X14000Y471100D03*
X14000Y445700D03*
X14000Y420300D03*
X289590Y217100D03*
X289590Y242500D03*
X289590Y267900D03*
X289590Y293300D03*
X289590Y318700D03*
X289590Y344100D03*
X289590Y369500D03*
X289590Y394900D03*
X289590Y420300D03*
X289590Y445700D03*
X289590Y471100D03*
X289590Y496500D03*
X289590Y521900D03*
X289590Y547300D03*
X289590Y572700D03*
X289590Y598100D03*
D13*
X289590Y13900D03*
D14*
X289590Y39300D03*
X289590Y64700D03*
X289590Y90100D03*
X289590Y115500D03*
X289590Y140900D03*
X289590Y166300D03*
X289590Y191700D03*
D18*
X177000Y604000D03*
X203000Y604000D03*
X263000Y597000D03*
X151000Y532000D03*
X197000Y501000D03*
X213000Y466000D03*
X192000Y467000D03*
X31000Y458000D03*
X44000Y428000D03*
X56000Y437000D03*
X140000Y433000D03*
X158000Y450000D03*
X246000Y397000D03*
X221000Y374000D03*
X128000Y358000D03*
X192000Y344000D03*
X193000Y307000D03*
X154000Y302000D03*
X120000Y299000D03*
X33000Y354000D03*
X41000Y337000D03*
X220000Y268000D03*
X258000Y279000D03*
X252000Y237000D03*
X101000Y237000D03*
X160000Y234000D03*
X187000Y230000D03*
X143000Y202000D03*
X174000Y190000D03*
X252000Y108000D03*
X226000Y80000D03*
X161000Y101000D03*
X100000Y107000D03*
X266000Y27000D03*
X266000Y7000D03*
X45000Y67000D03*
X60000Y12000D03*
D19*
X73500Y49000D02*
X71000Y51500D01*
X71000Y90000D01*
X56886Y104114D01*
X56886Y129012D01*
X58000Y39300D02*
X14000Y39300D01*
X58000Y39300D02*
X63800Y39300D01*
X73500Y49000D01*
X80000Y190990D02*
X134760Y190990D01*
X150000Y175750D01*
D18*
X170000Y78000D03*
D19*
X163750Y84250D01*
X150000Y84250D01*
D18*
X118000Y322000D03*
D20*
X135000Y305000D02*
X135000Y219000D01*
X135000Y305000D02*
X118000Y322000D01*
X135000Y219000D02*
X157000Y219000D01*
D18*
X234000Y345486D03*
D21*
X238008Y341478D01*
X238008Y254008D01*
X201000Y217000D01*
X198000Y217000D01*
D18*
X198000Y217000D03*
X241818Y347000D03*
X205814Y210810D03*
D21*
X204000Y212624D01*
X204000Y214612D01*
X241818Y252430D02*
X241818Y347000D01*
X241818Y252430D02*
X204000Y214612D01*
D18*
X237000Y171000D03*
D21*
X270000Y204000D01*
X280900Y267900D02*
X289590Y267900D01*
X270000Y257000D02*
X270000Y204000D01*
X270000Y257000D02*
X280900Y267900D01*
D19*
X150000Y144250D02*
X150000Y133000D01*
X150000Y130000D01*
X150000Y125024D01*
X150000Y115750D01*
X150988Y129012D02*
X150000Y130000D01*
X150988Y129012D02*
X153988Y129012D01*
X186886Y129012D01*
X187000Y128898D02*
X187000Y91000D01*
X187000Y128898D02*
X186886Y129012D01*
X153988Y129012D02*
X150000Y133000D01*
X153988Y129012D02*
X150000Y125024D01*
X187000Y91000D02*
X187000Y77000D01*
X187000Y71000D01*
X218700Y39300D02*
X289590Y39300D01*
X206000Y52000D02*
X187000Y71000D01*
X206000Y52000D02*
X218700Y39300D01*
X210000Y190990D02*
X201000Y199990D01*
X215600Y560600D02*
X215600Y575100D01*
X210000Y129012D02*
X210000Y120000D01*
X265300Y64700D02*
X289590Y64700D01*
X265300Y64700D02*
X210000Y120000D01*
X210000Y186000D02*
X210000Y190990D01*
X200010Y190990D01*
D22*
X203990Y190990D02*
X210000Y190990D01*
X198505Y179495D01*
X197005Y177995D01*
X195505Y176495D01*
X180010Y161000D01*
X169000Y161000D02*
X166000Y164000D01*
D18*
X166000Y164000D03*
D22*
X169000Y161000D02*
X180010Y161000D01*
X169000Y161000D02*
X116000Y161000D01*
X111000Y156000D01*
D18*
X111000Y156000D03*
D21*
X202990Y190990D02*
X210000Y190990D01*
X202990Y190990D02*
X194500Y182500D01*
X195505Y179495D02*
X197005Y177995D01*
X195505Y179495D02*
X198505Y179495D01*
X195505Y179495D02*
X195505Y176495D01*
X195505Y179495D02*
X194500Y180500D01*
X194500Y182500D01*
D19*
X203010Y190990D02*
X210000Y190990D01*
X203010Y190990D02*
X175000Y219000D01*
X175000Y241000D01*
X175000Y246000D01*
X175000Y251000D01*
X175000Y283000D01*
X175000Y290000D01*
X175000Y357000D01*
X175000Y365000D01*
X175000Y520000D01*
X215600Y560600D01*
D18*
X160000Y246000D03*
D20*
X170000Y246000D01*
X175000Y251000D01*
X170000Y246000D02*
X175000Y241000D01*
D18*
X171000Y361000D03*
X179000Y361000D03*
D20*
X175000Y365000D01*
X179000Y361000D02*
X175000Y357000D01*
X171000Y361000D01*
X175000Y365000D01*
D18*
X179000Y287000D03*
D20*
X176000Y290000D01*
X175000Y290000D01*
X179000Y287000D02*
X175000Y283000D01*
M02*
