G04 EAGLE Gerber X2 export*
G75*
%MOMM*%
%FSLAX34Y34*%
%LPD*%
%AMOC8*
5,1,8,0,0,1.08239X$1,22.5*%
G01*
%ADD10R,1.403200X1.003200*%
%ADD11R,1.753200X1.203200*%
%ADD12C,2.743200*%
%ADD13R,2.743200X2.743200*%
%ADD14R,2.082800X2.082800*%
%ADD15C,2.082800*%
%ADD16R,1.203200X0.423200*%
%ADD17R,0.423200X1.203200*%
%ADD18R,0.553200X1.603200*%
%ADD19R,2.003200X2.103200*%
%ADD20R,2.103200X2.103200*%
%ADD21R,2.303200X1.803200*%
%ADD22R,1.203200X1.303200*%
%ADD23C,0.360959*%
%ADD24R,1.003200X1.403200*%
%ADD25R,1.003200X1.103200*%
%ADD26R,1.303200X1.203200*%
%ADD27R,2.184400X0.762000*%


D10*
X179500Y119600D03*
X179500Y101600D03*
D11*
X217250Y480000D03*
X164750Y480000D03*
X217250Y512000D03*
X164750Y512000D03*
D12*
X108500Y49000D03*
D13*
X73500Y49000D03*
D14*
X241000Y575100D03*
D15*
X215600Y575100D03*
X190200Y575100D03*
X164800Y575100D03*
X139400Y575100D03*
X114000Y575100D03*
X88600Y575100D03*
X63200Y575100D03*
D16*
X103500Y326300D03*
X103500Y321300D03*
X103500Y336300D03*
X103500Y346300D03*
X103500Y356300D03*
X103500Y331300D03*
X103500Y341300D03*
X103500Y351300D03*
X103500Y361300D03*
X103500Y311300D03*
X103500Y301300D03*
X103500Y291300D03*
X103500Y286300D03*
X103500Y296300D03*
X103500Y306300D03*
X103500Y316300D03*
D17*
X158500Y266300D03*
X163500Y266300D03*
X148500Y266300D03*
X138500Y266300D03*
X128500Y266300D03*
X153500Y266300D03*
X143500Y266300D03*
X133500Y266300D03*
X123500Y266300D03*
X173500Y266300D03*
X183500Y266300D03*
X193500Y266300D03*
X198500Y266300D03*
X188500Y266300D03*
X178500Y266300D03*
X168500Y266300D03*
D16*
X218500Y321300D03*
X218500Y326300D03*
X218500Y311300D03*
X218500Y301300D03*
X218500Y291300D03*
X218500Y316300D03*
X218500Y306300D03*
X218500Y296300D03*
X218500Y286300D03*
X218500Y336300D03*
X218500Y346300D03*
X218500Y356300D03*
X218500Y361300D03*
X218500Y351300D03*
X218500Y341300D03*
X218500Y331300D03*
D17*
X163500Y381300D03*
X158500Y381300D03*
X173500Y381300D03*
X183500Y381300D03*
X193500Y381300D03*
X168500Y381300D03*
X178500Y381300D03*
X188500Y381300D03*
X198500Y381300D03*
X148500Y381300D03*
X138500Y381300D03*
X128500Y381300D03*
X123500Y381300D03*
X133500Y381300D03*
X143500Y381300D03*
X153500Y381300D03*
D18*
X192000Y47500D03*
X218000Y47500D03*
X198500Y47500D03*
X205000Y47500D03*
X211500Y47500D03*
D19*
X165000Y19000D03*
X245000Y19000D03*
D20*
X192300Y19000D03*
X217700Y19000D03*
D21*
X174000Y46500D03*
X236000Y46500D03*
D22*
X179500Y162100D03*
X179500Y145100D03*
D23*
X82040Y371814D02*
X71077Y385352D01*
X82040Y371814D02*
X75495Y366514D01*
X64532Y380052D01*
X71077Y385352D01*
X72572Y370123D02*
X79952Y370123D01*
X80487Y373732D02*
X69650Y373732D01*
X66727Y377341D02*
X77564Y377341D01*
X74642Y380950D02*
X65641Y380950D01*
X70098Y384559D02*
X71719Y384559D01*
X90505Y401086D02*
X101468Y387548D01*
X94923Y382248D01*
X83960Y395786D01*
X90505Y401086D01*
X92000Y385857D02*
X99380Y385857D01*
X99915Y389466D02*
X89078Y389466D01*
X86155Y393075D02*
X96992Y393075D01*
X94070Y396684D02*
X85069Y396684D01*
X89526Y400293D02*
X91147Y400293D01*
D24*
X216000Y539500D03*
X234000Y539500D03*
D25*
G36*
X60095Y404273D02*
X66408Y396478D01*
X57835Y389535D01*
X51522Y397330D01*
X60095Y404273D01*
G37*
G36*
X52165Y414065D02*
X58478Y406270D01*
X49905Y399327D01*
X43592Y407122D01*
X52165Y414065D01*
G37*
G36*
X75095Y415273D02*
X81408Y407478D01*
X72835Y400535D01*
X66522Y408330D01*
X75095Y415273D01*
G37*
G36*
X67165Y425065D02*
X73478Y417270D01*
X64905Y410327D01*
X58592Y418122D01*
X67165Y425065D01*
G37*
D10*
X181000Y411000D03*
X181000Y429000D03*
D22*
X144000Y242300D03*
X144000Y225300D03*
X240800Y285500D03*
X240800Y268500D03*
X241000Y365300D03*
X241000Y382300D03*
X160000Y407500D03*
X160000Y424500D03*
D26*
X78407Y325882D03*
X61407Y325882D03*
X182500Y449000D03*
X199500Y449000D03*
D22*
X202000Y412500D03*
X202000Y429500D03*
D27*
X142778Y148230D03*
X142778Y160930D03*
X142778Y173630D03*
X142778Y186330D03*
X93502Y186330D03*
X93502Y173630D03*
X93502Y160930D03*
X93502Y148230D03*
D24*
X108860Y122320D03*
X126860Y122320D03*
D22*
X228000Y162300D03*
X228000Y145300D03*
D10*
X228000Y120800D03*
X228000Y102800D03*
D15*
X14000Y394900D03*
X14000Y369500D03*
X14000Y344100D03*
X14000Y318700D03*
X14000Y293300D03*
X14000Y267900D03*
X14000Y242500D03*
X14000Y217100D03*
X14000Y191700D03*
X14000Y166300D03*
X14000Y140900D03*
X14000Y115500D03*
X14000Y90100D03*
X14000Y64700D03*
X14000Y39300D03*
X14000Y13900D03*
D14*
X14000Y598100D03*
D15*
X14000Y572700D03*
X14000Y547300D03*
X14000Y521900D03*
X14000Y496500D03*
X14000Y471100D03*
X14000Y445700D03*
X14000Y420300D03*
X289590Y217100D03*
X289590Y242500D03*
X289590Y267900D03*
X289590Y293300D03*
X289590Y318700D03*
X289590Y344100D03*
X289590Y369500D03*
X289590Y394900D03*
X289590Y420300D03*
X289590Y445700D03*
X289590Y471100D03*
X289590Y496500D03*
X289590Y521900D03*
X289590Y547300D03*
X289590Y572700D03*
X289590Y598100D03*
D14*
X289590Y13900D03*
D15*
X289590Y39300D03*
X289590Y64700D03*
X289590Y90100D03*
X289590Y115500D03*
X289590Y140900D03*
X289590Y166300D03*
X289590Y191700D03*
D24*
X118000Y544800D03*
X136000Y544800D03*
D26*
X130500Y94000D03*
X113500Y94000D03*
D10*
X83000Y106000D03*
X83000Y124000D03*
D22*
X130000Y518500D03*
X130000Y501500D03*
D10*
X130000Y469000D03*
X130000Y451000D03*
M02*
