G04 EAGLE Gerber X2 export*
G75*
%MOMM*%
%FSLAX34Y34*%
%LPD*%
%AMOC8*
5,1,8,0,0,1.08239X$1,22.5*%
G01*
%ADD10R,1.153200X1.103200*%
%ADD11C,2.743200*%
%ADD12R,2.743200X2.743200*%
%ADD13R,2.082800X2.082800*%
%ADD14C,2.082800*%
%ADD15R,1.422400X2.438400*%
%ADD16R,3.803200X2.403200*%
%ADD17R,1.003200X1.403200*%


D10*
X150000Y175750D03*
X150000Y144250D03*
X150000Y84250D03*
X150000Y115750D03*
D11*
X108500Y49000D03*
D12*
X73500Y49000D03*
D13*
X241000Y575100D03*
D14*
X215600Y575100D03*
X190200Y575100D03*
X164800Y575100D03*
X139400Y575100D03*
X114000Y575100D03*
X88600Y575100D03*
X63200Y575100D03*
D15*
X103114Y129012D03*
X80000Y129012D03*
X56886Y129012D03*
D16*
X80000Y190990D03*
D15*
X233114Y129012D03*
X210000Y129012D03*
X186886Y129012D03*
D16*
X210000Y190990D03*
D17*
X71000Y90000D03*
X89000Y90000D03*
X187000Y91000D03*
X205000Y91000D03*
X175000Y246000D03*
X193000Y246000D03*
X175000Y219000D03*
X157000Y219000D03*
X135000Y219000D03*
X117000Y219000D03*
D14*
X14000Y394900D03*
X14000Y369500D03*
X14000Y344100D03*
X14000Y318700D03*
X14000Y293300D03*
X14000Y267900D03*
X14000Y242500D03*
X14000Y217100D03*
X14000Y191700D03*
X14000Y166300D03*
X14000Y140900D03*
X14000Y115500D03*
X14000Y90100D03*
X14000Y64700D03*
X14000Y39300D03*
X14000Y13900D03*
D13*
X14000Y598100D03*
D14*
X14000Y572700D03*
X14000Y547300D03*
X14000Y521900D03*
X14000Y496500D03*
X14000Y471100D03*
X14000Y445700D03*
X14000Y420300D03*
X289590Y217100D03*
X289590Y242500D03*
X289590Y267900D03*
X289590Y293300D03*
X289590Y318700D03*
X289590Y344100D03*
X289590Y369500D03*
X289590Y394900D03*
X289590Y420300D03*
X289590Y445700D03*
X289590Y471100D03*
X289590Y496500D03*
X289590Y521900D03*
X289590Y547300D03*
X289590Y572700D03*
X289590Y598100D03*
D13*
X289590Y13900D03*
D14*
X289590Y39300D03*
X289590Y64700D03*
X289590Y90100D03*
X289590Y115500D03*
X289590Y140900D03*
X289590Y166300D03*
X289590Y191700D03*
M02*
